<svg width="14" height="14" viewBox="0 0 14 14" fill="none" xmlns="http://www.w3.org/2000/svg">
<path d="M10.1812 7.7C10.706 7.7 11.1679 7.413 11.4058 6.979L13.9108 2.436C14.1697 1.974 13.8339 1.4 13.3021 1.4H2.94591L2.28815 0H0V1.4H1.39948L3.91855 6.713L2.9739 8.421C2.46309 9.359 3.13484 10.5 4.19844 10.5H12.5953V9.1H4.19844L4.96816 7.7H10.1812ZM3.61066 2.8H12.1125L10.1812 6.3H5.26904L3.61066 2.8ZM4.19844 11.2C3.42873 11.2 2.80596 11.83 2.80596 12.6C2.80596 13.37 3.42873 14 4.19844 14C4.96816 14 5.59792 13.37 5.59792 12.6C5.59792 11.83 4.96816 11.2 4.19844 11.2ZM11.1958 11.2C10.4261 11.2 9.80336 11.83 9.80336 12.6C9.80336 13.37 10.4261 14 11.1958 14C11.9656 14 12.5953 13.37 12.5953 12.6C12.5953 11.83 11.9656 11.2 11.1958 11.2Z" fill="#6CAB40"/>
</svg>
