<svg width="38" height="30" viewBox="0 0 38 30" fill="none" xmlns="http://www.w3.org/2000/svg">
<path fill-rule="evenodd" clip-rule="evenodd" d="M23.5737 7.04408H29.1261C30.7882 7.04408 30.3997 6.84481 31.3332 8.23068L36.0094 15.1661C36.988 16.6184 37.003 16.3043 37.003 18.0465V23.7802C37.003 25.6371 35.4884 27.1588 33.6336 27.1588H32.9471C33.0073 26.8599 33.0374 26.5489 33.0374 26.2319C33.0374 23.5839 30.8966 21.4342 28.2528 21.4342C25.6121 21.4342 23.4683 23.5809 23.4683 26.2319C23.4683 26.5489 23.4984 26.8569 23.5586 27.1588H17.5063C17.5636 26.8599 17.5967 26.5489 17.5967 26.2319C17.5967 23.5839 15.4558 21.4342 12.8121 21.4342C10.1714 21.4342 8.02751 23.5809 8.02751 26.2319C8.02751 26.5489 8.05762 26.8569 8.11784 27.1588H7.31991C5.61564 27.1588 4.22152 25.7609 4.22152 24.0519V19.0368H23.5737V7.04408ZM28.2498 22.4607C30.3245 22.4607 32.0077 24.1486 32.0077 26.2319C32.0077 28.3122 30.3245 30 28.2498 30C26.1722 30 24.489 28.3122 24.489 26.2319C24.489 24.1486 26.1722 22.4607 28.2498 22.4607ZM12.8091 22.4607C14.8867 22.4607 16.5699 24.1486 16.5699 26.2319C16.5699 28.3122 14.8867 30 12.8091 30C10.7345 30 9.05127 28.3122 9.05127 26.2319C9.05127 24.1486 10.7345 22.4607 12.8091 22.4607ZM12.8091 25.1147C13.4233 25.1147 13.9232 25.6129 13.9232 26.2319C13.9232 26.8478 13.4264 27.346 12.8091 27.346C12.1948 27.346 11.698 26.8448 11.698 26.2319C11.698 25.6129 12.1978 25.1147 12.8091 25.1147ZM28.2498 25.0876C28.8792 25.0876 29.391 25.6008 29.391 26.2319C29.391 26.8629 28.8792 27.3762 28.2498 27.3762C27.6205 27.3762 27.1086 26.8629 27.1086 26.2319C27.1086 25.5978 27.6205 25.0876 28.2498 25.0876ZM26.8015 9.76751H27.8704L32.4352 16.1443V17.9982C32.4352 18.4481 32.0679 18.8164 31.6192 18.8164H26.8015C26.3408 18.8164 25.9674 18.439 25.9674 17.9801V10.6069C25.9644 10.1449 26.3408 9.76751 26.8015 9.76751ZM1.6862 0H21.0353C21.9627 0 22.7215 0.76087 22.7215 1.69082V16.4614C22.7215 17.3913 21.9627 18.1522 21.0353 18.1522H1.6862C0.758789 18.1522 0 17.3913 0 16.4614V1.69082C0 0.76087 0.758789 0 1.6862 0Z" fill="white"/>
</svg>
