<svg width="40" height="34" viewBox="0 0 40 34" fill="none" xmlns="http://www.w3.org/2000/svg">
<path d="M39.9804 10.5819C40.0065 10.4613 40.0065 10.3361 39.9804 10.2155C39.9654 10.0783 39.9191 9.9467 39.8453 9.83158L33.7993 0.687719C33.808 0.618205 33.808 0.547831 33.7993 0.478317C33.7205 0.317446 33.5953 0.185768 33.4411 0.101397C33.2869 0.0170252 33.1111 -0.0158951 32.938 0.00716396H7.25122C7.13266 0.0165839 7.01746 0.0522949 6.91346 0.111865C6.86304 0.152477 6.81766 0.199365 6.77836 0.251466C6.72871 0.286391 6.68334 0.327407 6.64325 0.373617L0.175106 9.72688C0.0872906 9.85547 0.0347718 10.0062 0.0231131 10.1631C-0.00770437 10.295 -0.00770437 10.4326 0.0231131 10.5645C0.0199736 10.6051 0.0199736 10.646 0.0231131 10.6866L20.0862 34H20.2888H20.3733H20.4746H20.6942H20.9475H21.0488L39.6257 10.8088C39.628 10.7739 39.628 10.7389 39.6257 10.7041C39.6257 10.7041 39.9804 10.5994 39.9804 10.5819ZM20.0355 2.39783L24.798 9.37788H15.2224L18.1272 5.12005L20.0355 2.39783ZM25.4397 11.1229L20.6266 30.318L14.8002 11.1229H25.4397ZM18.6845 29.7945L2.7421 11.1054H13.027L18.6845 29.7945ZM27.1285 11.1229H37.3627L22.4843 29.8294L27.1285 11.1229ZM28.108 9.37788L32.8198 2.39783L37.5316 9.37788H28.108ZM31.1986 1.75218L26.4868 8.73223L21.775 1.75218H31.1986ZM15.5095 6.01001L13.6518 8.73223L9.63245 2.83408L8.88937 1.75218H18.4143L15.5095 6.01001ZM7.25122 2.39783L11.2875 8.27852L12.0306 9.36043H2.48878L7.25122 2.39783Z" fill="white"/>
</svg>
