<svg width="42" height="43" viewBox="0 0 42 43" fill="none" xmlns="http://www.w3.org/2000/svg">
<path fill-rule="evenodd" clip-rule="evenodd" d="M4.82655 34.2428C3.03521 36.5942 1.48961 38.5467 0.652702 40.7932C-0.162834 42.9837 -0.494034 43.9809 1.35784 41.7135C3.08151 39.6 4.69122 37.546 7.0488 35.597C7.21618 35.6354 7.39068 35.6704 7.57943 35.7089C28.8902 39.8659 44.4139 30.4462 41.6895 0C25.272 5.58466 2.0238 3.3172 4.43124 31.9298C4.51671 32.9936 4.59863 33.7214 4.82655 34.2428ZM10.546 29.6659C15.9022 18.3286 29.663 14.441 36.4901 6.6869C29.079 20.89 25.0369 20.2636 10.546 29.6659Z" fill="white"/>
</svg>
