<svg width="24" height="30" viewBox="0 0 24 30" fill="none" xmlns="http://www.w3.org/2000/svg">
<path d="M18.032 21.7891L18.0285 21.799C17.6856 22.7921 17.2589 24.0281 16.0855 24.4153C15.8776 24.4834 15.6603 24.5179 15.4418 24.5174C14.5906 24.5174 13.8629 24.0337 13.1621 23.545L14.9107 29.5382C14.9455 29.6576 15.0136 29.7641 15.1067 29.845C15.1997 29.9259 15.3138 29.9778 15.4352 29.9943C15.5567 30.0108 15.6802 29.9913 15.7909 29.9381C15.9017 29.8849 15.9949 29.8003 16.0594 29.6945L17.3141 27.6366C17.382 27.5252 17.4816 27.4374 17.5998 27.385C17.718 27.3326 17.8491 27.318 17.9756 27.3432L20.314 27.8075C20.4342 27.8314 20.5587 27.8194 20.6724 27.7731C20.786 27.7267 20.8841 27.648 20.9547 27.5463C21.0253 27.4446 21.0655 27.3244 21.0703 27.2C21.0752 27.0757 21.0445 26.9526 20.9821 26.8455L18.032 21.7891Z" fill="#6EA02E"/>
<path d="M8.55783 24.5174C8.33933 24.5179 8.12211 24.4835 7.91415 24.4153C6.83184 24.0582 6.38623 22.9807 6.05434 22.036L3.24817 26.8456C3.18571 26.9526 3.15507 27.0758 3.15992 27.2001C3.16478 27.3244 3.20494 27.4447 3.27556 27.5464C3.34617 27.6481 3.44423 27.7268 3.55791 27.7732C3.67159 27.8195 3.79603 27.8314 3.91624 27.8076L6.25471 27.3432C6.38126 27.3181 6.51234 27.3327 6.63051 27.3851C6.74868 27.4375 6.84835 27.5253 6.91625 27.6366L8.17084 29.6946C8.23531 29.8004 8.32853 29.885 8.43926 29.9382C8.54999 29.9914 8.6735 30.0109 8.7949 29.9944C8.9163 29.9778 9.0304 29.926 9.12346 29.8451C9.21651 29.7642 9.28453 29.6576 9.31933 29.5383L11.1266 23.3444C11.0568 23.3924 10.9896 23.4391 10.9309 23.4802C10.2013 23.9903 9.44665 24.5174 8.55783 24.5174Z" fill="#6EA02E"/>
<path d="M24 11.6393C24 10.4438 21.6826 9.63517 21.3378 8.55643C20.9804 7.43851 22.375 5.40276 21.7084 4.47221C21.0351 3.53234 18.6941 4.25422 17.769 3.57053C16.8531 2.89319 16.8095 0.404775 15.7091 0.0416288C14.6472 -0.308686 13.1766 1.66711 11.9999 1.66711C10.8232 1.66711 9.35273 -0.308636 8.29099 0.0416783C7.19058 0.404626 7.14694 2.89319 6.23101 3.57048C5.30595 4.25442 2.96494 3.53239 2.29166 4.47216C1.62506 5.40266 3.01956 7.43846 2.66227 8.55643C2.31751 9.63522 0 10.444 0 11.6394C0 12.8348 2.31751 13.6435 2.66251 14.7222C3.0198 15.8402 1.62535 17.8759 2.29191 18.8065C2.96514 19.7463 5.3061 19.0244 6.2312 19.7081C7.14709 20.3854 7.19073 22.8739 8.29119 23.237C9.35302 23.5873 10.8236 21.6115 12.0004 21.6115C13.1772 21.6115 14.6477 23.5873 15.7094 23.2371C16.8098 22.874 16.8534 20.3855 17.7694 19.7083C18.6945 19.0243 21.0354 19.7463 21.7087 18.8066C22.3754 17.8761 20.9809 15.8403 21.3381 14.7223C21.6825 13.6436 24 12.835 24 11.6393ZM12.0029 18.14C10.7375 18.14 9.50041 17.7588 8.4482 17.0445C7.39599 16.3302 6.57589 15.315 6.0916 14.1271C5.60732 12.9393 5.4806 11.6323 5.72747 10.3713C5.97434 9.11033 6.58372 7.95205 7.47854 7.04292C8.37336 6.13379 9.51343 5.51467 10.7546 5.26382C11.9958 5.01298 13.2823 5.14169 14.4514 5.63368C15.6206 6.12567 16.6199 6.95884 17.323 8.02783C18.026 9.09682 18.4013 10.3536 18.4014 11.6393C18.4014 12.493 18.2359 13.3383 17.9143 14.127C17.5928 14.9157 17.1215 15.6323 16.5273 16.236C15.9332 16.8396 15.2278 17.3185 14.4515 17.6452C13.6752 17.9719 12.8432 18.14 12.0029 18.14Z" fill="#6EA02E"/>
<path d="M14.8129 10.0733H13.6117C13.474 10.0733 13.3398 10.029 13.2284 9.94675C13.1169 9.8645 13.034 9.74852 12.9914 9.61543L12.6202 8.4548C12.5777 8.32171 12.4947 8.20574 12.3833 8.12349C12.2718 8.04125 12.1376 7.99695 11.9999 7.99695C11.8622 7.99695 11.728 8.04125 11.6165 8.12349C11.5051 8.20574 11.4222 8.32171 11.3796 8.4548L11.0084 9.61543C10.9659 9.74851 10.8829 9.86449 10.7715 9.94674C10.66 10.029 10.5258 10.0733 10.3881 10.0733H9.18695C9.04916 10.0732 8.91489 10.1175 8.80339 10.1998C8.6919 10.282 8.60891 10.398 8.56634 10.5312C8.52376 10.6643 8.52379 10.8078 8.56641 10.9409C8.60903 11.074 8.69205 11.19 8.80357 11.2722L9.77534 11.9896C9.88676 12.0719 9.96969 12.1878 10.0122 12.3209C10.0548 12.454 10.0548 12.5974 10.0122 12.7305L9.64104 13.891C9.59858 14.0241 9.59865 14.1674 9.64126 14.3004C9.68386 14.4335 9.7668 14.5494 9.87821 14.6316C9.98962 14.7138 10.1238 14.7581 10.2615 14.7581C10.3992 14.7581 10.5333 14.7138 10.6448 14.6316L11.6167 13.9144C11.7281 13.8321 11.8623 13.7878 12 13.7878C12.1378 13.7878 12.272 13.8321 12.3834 13.9144L13.3551 14.6316C13.4665 14.7139 13.6007 14.7582 13.7384 14.7581C13.8762 14.7581 14.0103 14.7138 14.1218 14.6316C14.2332 14.5493 14.3161 14.4333 14.3587 14.3003C14.4013 14.1672 14.4013 14.0238 14.3587 13.8907L13.9875 12.7302C13.945 12.5971 13.945 12.4537 13.9876 12.3206C14.0301 12.1875 14.1131 12.0716 14.2245 11.9893L15.1963 11.2719C15.3077 11.1897 15.3906 11.0737 15.4331 10.9406C15.4757 10.8075 15.4757 10.6642 15.4331 10.5311C15.3905 10.3981 15.3076 10.2821 15.1962 10.1999C15.0848 10.1176 14.9506 10.0733 14.8129 10.0733Z" fill="#6EA02E"/>
</svg>
