<svg width="38" height="50" viewBox="0 0 38 50" fill="none" xmlns="http://www.w3.org/2000/svg">
<path d="M18.75 50C21.5 50 23.75 47.75 23.75 45H13.75C13.75 47.75 16 50 18.75 50Z" fill="#30AFD8"/>
<path d="M11.25 42.5H26.25C27.625 42.5 28.75 41.375 28.75 40C28.75 38.625 27.625 37.5 26.25 37.5H11.25C9.875 37.5 8.75 38.625 8.75 40C8.75 41.375 9.875 42.5 11.25 42.5Z" fill="#30AFD8"/>
<path d="M18.75 0C8.4 0 0 8.4 0 18.75C0 28.3 6.65 33.4 9.425 35H28.075C30.85 33.4 37.5 28.3 37.5 18.75C37.5 8.4 29.1 0 18.75 0Z" fill="#30AFD8"/>
</svg>
