<svg width="42" height="42" viewBox="0 0 42 42" fill="none" xmlns="http://www.w3.org/2000/svg">
<g clip-path="url(#clip0_58_54)">
<path d="M21.0102 0.318359C12.3744 0.318359 9.84871 0.327268 9.35777 0.367996C7.58555 0.515314 6.48277 0.794359 5.28135 1.39254C4.35547 1.85231 3.62526 2.38527 2.9046 3.13236C1.59214 4.49481 0.796714 6.171 0.508768 8.16345C0.368772 9.13072 0.328046 9.328 0.319773 14.2687C0.316592 15.9156 0.319773 18.0831 0.319773 20.9903C0.319773 29.6194 0.329319 32.1426 0.370681 32.6326C0.513858 34.3571 0.784305 35.4421 1.35701 36.629C2.45153 38.9008 4.54192 40.6062 7.00457 41.2426C7.85727 41.4621 8.79906 41.583 10.0081 41.6403C10.5204 41.6626 15.7416 41.6785 20.966 41.6785C26.1904 41.6785 31.4147 41.6721 31.9143 41.6467C33.3142 41.5808 34.1272 41.4717 35.026 41.2394C37.5046 40.5999 39.5568 38.9199 40.6735 36.6162C41.2351 35.458 41.5199 34.3317 41.6487 32.6972C41.6767 32.3408 41.6885 26.659 41.6885 20.9849C41.6885 15.3098 41.6758 9.63854 41.6478 9.28218C41.5173 7.62127 41.2326 6.50445 40.6529 5.324C40.1772 4.35768 39.649 3.63604 38.8822 2.89818C37.5138 1.59109 35.8402 0.795632 33.8459 0.507996C32.8796 0.368314 32.6871 0.32695 27.7427 0.318359H21.0102Z" fill="url(#paint0_radial_58_54)"/>
<path d="M21.0102 0.318359C12.3744 0.318359 9.84871 0.327268 9.35777 0.367996C7.58555 0.515314 6.48277 0.794359 5.28135 1.39254C4.35547 1.85231 3.62526 2.38527 2.9046 3.13236C1.59214 4.49481 0.796714 6.171 0.508768 8.16345C0.368772 9.13072 0.328046 9.328 0.319773 14.2687C0.316592 15.9156 0.319773 18.0831 0.319773 20.9903C0.319773 29.6194 0.329319 32.1426 0.370681 32.6326C0.513858 34.3571 0.784305 35.4421 1.35701 36.629C2.45153 38.9008 4.54192 40.6062 7.00457 41.2426C7.85727 41.4621 8.79906 41.583 10.0081 41.6403C10.5204 41.6626 15.7416 41.6785 20.966 41.6785C26.1904 41.6785 31.4147 41.6721 31.9143 41.6467C33.3142 41.5808 34.1272 41.4717 35.026 41.2394C37.5046 40.5999 39.5568 38.9199 40.6735 36.6162C41.2351 35.458 41.5199 34.3317 41.6487 32.6972C41.6767 32.3408 41.6885 26.659 41.6885 20.9849C41.6885 15.3098 41.6758 9.63854 41.6478 9.28218C41.5173 7.62127 41.2326 6.50445 40.6529 5.324C40.1772 4.35768 39.649 3.63604 38.8822 2.89818C37.5138 1.59109 35.8402 0.795632 33.8459 0.507996C32.8796 0.368314 32.6871 0.32695 27.7427 0.318359H21.0102Z" fill="url(#paint1_radial_58_54)"/>
<path d="M21.0006 5.72705C16.8529 5.72705 16.3324 5.74519 14.7033 5.81932C13.0775 5.89378 11.9677 6.15119 10.9966 6.52887C9.99215 6.91896 9.14008 7.44078 8.2912 8.29001C7.44168 9.13891 6.91988 9.99101 6.52853 10.9952C6.1499 11.9666 5.89218 13.0767 5.819 14.702C5.74614 16.3311 5.72705 16.852 5.72705 20.9998C5.72705 25.1476 5.74551 25.6666 5.81932 27.2956C5.89409 28.9216 6.15149 30.0314 6.52884 31.0025C6.91924 32.007 7.44104 32.8591 8.29025 33.708C9.13881 34.5575 9.99088 35.0806 10.9947 35.4707C11.9664 35.8484 13.0765 36.1058 14.7021 36.1802C16.3311 36.2544 16.8513 36.2725 20.9987 36.2725C25.1467 36.2725 25.6656 36.2544 27.2947 36.1802C28.9205 36.1058 30.0316 35.8484 31.0033 35.4707C32.0074 35.0806 32.8582 34.5575 33.7068 33.708C34.5563 32.8591 35.0781 32.007 35.4695 31.0028C35.8449 30.0314 36.1026 28.9212 36.179 27.296C36.2522 25.6669 36.2713 25.1476 36.2713 20.9998C36.2713 16.852 36.2522 16.3314 36.179 14.7023C36.1026 13.0764 35.8449 11.9666 35.4695 10.9955C35.0781 9.991 34.5563 9.13891 33.7068 8.29001C32.8573 7.44046 32.0078 6.91864 31.0023 6.52887C30.0287 6.15119 28.9183 5.89378 27.2924 5.81932C25.6634 5.74519 25.1448 5.72705 20.9958 5.72705H21.0006ZM19.6305 8.47932C20.0372 8.47869 20.4909 8.47932 21.0006 8.47932C25.0783 8.47932 25.5616 8.49396 27.1719 8.56714C28.6609 8.63523 29.4691 8.88405 30.0074 9.0931C30.7201 9.36991 31.2282 9.70082 31.7624 10.2354C32.297 10.7699 32.6279 11.279 32.9053 11.9917C33.1144 12.5295 33.3635 13.3376 33.4313 14.8267C33.5044 16.4367 33.5203 16.9204 33.5203 20.9963C33.5203 25.0722 33.5044 25.5558 33.4313 27.1658C33.3632 28.6549 33.1144 29.4631 32.9053 30.0008C32.6285 30.7136 32.297 31.2211 31.7624 31.7553C31.2279 32.2898 30.7204 32.6207 30.0074 32.8975C29.4697 33.1075 28.6609 33.3557 27.1719 33.4238C25.5619 33.497 25.0783 33.5129 21.0006 33.5129C16.9226 33.5129 16.4393 33.497 14.8293 33.4238C13.3403 33.3551 12.5321 33.1063 11.9935 32.8972C11.2807 32.6204 10.7717 32.2895 10.2371 31.755C9.70261 31.2204 9.37171 30.7126 9.09427 29.9996C8.88523 29.4618 8.6361 28.6536 8.56833 27.1646C8.49515 25.5546 8.48051 25.0709 8.48051 20.9925C8.48051 16.914 8.49515 16.4329 8.56833 14.8229C8.63642 13.3338 8.88523 12.5256 9.09427 11.9873C9.37108 11.2746 9.70261 10.7655 10.2371 10.2309C10.7717 9.69637 11.2807 9.36546 11.9935 9.08801C12.5318 8.87801 13.3403 8.62982 14.8293 8.56141C16.2382 8.49778 16.7842 8.47869 19.6305 8.47551V8.47932ZM29.1528 11.0152C28.141 11.0152 27.3201 11.8352 27.3201 12.8473C27.3201 13.8591 28.141 14.6801 29.1528 14.6801C30.1646 14.6801 30.9855 13.8591 30.9855 12.8473C30.9855 11.8355 30.1646 11.0146 29.1528 11.0146V11.0152ZM21.0006 13.1566C16.6693 13.1566 13.1576 16.6684 13.1576 20.9998C13.1576 25.3312 16.6693 28.8414 21.0006 28.8414C25.3319 28.8414 28.8423 25.3312 28.8423 20.9998C28.8423 16.6684 25.3319 13.1566 21.0006 13.1566ZM21.0006 15.9089C23.812 15.9089 26.0913 18.188 26.0913 20.9998C26.0913 23.8112 23.812 26.0907 21.0006 26.0907C18.1889 26.0907 15.9098 23.8112 15.9098 20.9998C15.9098 18.188 18.1889 15.9089 21.0006 15.9089Z" fill="white"/>
</g>
<defs>
<radialGradient id="paint0_radial_58_54" cx="0" cy="0" r="1" gradientUnits="userSpaceOnUse" gradientTransform="translate(11.3074 44.8641) rotate(-90) scale(40.991 38.134)">
<stop stop-color="#FFDD55"/>
<stop offset="0.1" stop-color="#FFDD55"/>
<stop offset="0.5" stop-color="#FF543E"/>
<stop offset="1" stop-color="#C837AB"/>
</radialGradient>
<radialGradient id="paint1_radial_58_54" cx="0" cy="0" r="1" gradientUnits="userSpaceOnUse" gradientTransform="translate(-6.61136 3.29787) rotate(78.678) scale(18.3233 75.5463)">
<stop stop-color="#3771C8"/>
<stop offset="0.128" stop-color="#3771C8"/>
<stop offset="1" stop-color="#6600FF" stop-opacity="0"/>
</radialGradient>
<clipPath id="clip0_58_54">
<rect width="42" height="42" fill="white"/>
</clipPath>
</defs>
</svg>
