<svg width="43" height="43" viewBox="0 0 43 43" fill="none" xmlns="http://www.w3.org/2000/svg">
<path d="M21.242 15.351C23.994 15.48 24.7035 17.8235 24.7465 18.92H28.595C28.423 14.663 25.3915 12.0615 21.1775 12.0615C16.426 12.0615 12.9 15.05 12.9 21.801C12.9 25.972 14.8995 30.917 21.156 30.917C25.929 30.917 28.4875 27.3695 28.552 24.5745H24.7035C24.639 25.843 23.736 27.5415 21.199 27.6705C18.3825 27.5845 17.2 25.3915 17.2 21.801C17.2 15.5875 19.952 15.394 21.242 15.351ZM21.5 0C9.632 0 0 9.632 0 21.5C0 33.368 9.632 43 21.5 43C33.368 43 43 33.368 43 21.5C43 9.632 33.368 0 21.5 0ZM21.5 38.7C12.0185 38.7 4.3 30.9815 4.3 21.5C4.3 12.0185 12.0185 4.3 21.5 4.3C30.9815 4.3 38.7 12.0185 38.7 21.5C38.7 30.9815 30.9815 38.7 21.5 38.7Z" fill="#EF4649"/>
</svg>
