<svg width="20" height="20" viewBox="0 0 20 20" fill="none" xmlns="http://www.w3.org/2000/svg">
<g clip-path="url(#clip0_414_813)">
<path d="M9.99484 20C6.18743 20.0004 2.6765 17.8211 0.994969 14.3909C-0.706586 10.9188 -0.191384 6.58863 2.27758 3.6158C4.74386 0.64605 8.75343 -0.649777 12.4915 0.314497C12.9032 0.420656 13.1508 0.84029 13.0449 1.25185C12.9386 1.6634 12.5181 1.91034 12.1065 1.80456C8.94442 0.988758 5.55055 2.08496 3.46317 4.59854C1.37463 7.11365 0.938751 10.7773 2.37847 13.7151C3.8128 16.6414 6.97679 18.5476 10.2243 18.4592C13.4715 18.3707 16.4183 16.3979 17.7317 13.4336C18.503 11.6927 18.6663 9.72146 18.1907 7.88253C18.0844 7.47136 18.332 7.05172 18.744 6.94518C19.1549 6.83864 19.5758 7.08634 19.6824 7.4979C20.2438 9.67069 20.0517 12 19.1407 14.0563C17.5881 17.5603 14.1045 19.8923 10.2667 19.9969C10.1758 19.9988 10.0849 20 9.99484 20Z" fill="#004B61"/>
<path d="M9.98876 12.3985C9.79161 12.3985 9.59447 12.3235 9.44429 12.1731C9.14357 11.8727 9.14357 11.3858 9.44429 11.0854L18.6856 1.85421C18.986 1.55381 19.4742 1.55381 19.7746 1.85421C20.0753 2.15461 20.0753 2.64156 19.7746 2.94195L10.5332 12.1731C10.3831 12.3231 10.1859 12.3985 9.98876 12.3985Z" fill="#004B61"/>
<path d="M9.99032 12.3987C9.79317 12.3987 9.59603 12.3237 9.44585 12.1733L6.17867 8.90972C5.87794 8.60932 5.87794 8.12238 6.17867 7.82198C6.47901 7.52158 6.96726 7.52158 7.2676 7.82198L10.5347 11.0856C10.8355 11.386 10.8355 11.8729 10.5347 12.1733C10.3846 12.3233 10.1874 12.3987 9.99032 12.3987Z" fill="#004B61"/>
</g>
<defs>
<clipPath id="clip0_414_813">
<rect width="20" height="20" fill="white"/>
</clipPath>
</defs>
</svg>
