<svg width="39" height="50" viewBox="0 0 39 50" fill="none" xmlns="http://www.w3.org/2000/svg">
<path d="M21.4247 45.8755V44.7812L22.0916 43.6869L21.4247 42.5926L20.7578 41.1616L21.4247 40.4882L22.0916 38.7206L21.4247 38.0472V36.2795L22.8419 34.1751V32.7441H19.3405L19.0071 34.8485L17.5898 36.7004V46.5489C17.5898 47.1381 17.7566 47.6431 18.09 48.1482C18.5069 48.7374 19.1738 49.1583 19.9241 49.3266C20.0908 49.3266 20.2576 49.4108 20.4243 49.4108C21.1746 49.4108 21.8415 49.1583 22.3417 48.6532C22.5084 48.4849 22.6752 48.3165 22.7585 48.064C22.8419 47.8957 22.9253 47.7273 23.0086 47.559L22.175 47.1381L21.4247 45.8755Z" fill="#F44336"/>
<path d="M23.1754 24.7476H17.5898V28.2829H23.1754V24.7476Z" fill="#F44336"/>
<path d="M7.83623 1.85207C8.25061 1.85207 8.58653 1.51289 8.58653 1.09449C8.58653 0.676092 8.25061 0.336914 7.83623 0.336914C7.42186 0.336914 7.08594 0.676092 7.08594 1.09449C7.08594 1.51289 7.42186 1.85207 7.83623 1.85207Z" fill="#004B61"/>
<path d="M32.43 25.8418C32.8444 25.8418 33.1803 25.5026 33.1803 25.0842C33.1803 24.6658 32.8444 24.3267 32.43 24.3267C32.0156 24.3267 31.6797 24.6658 31.6797 25.0842C31.6797 25.5026 32.0156 25.8418 32.43 25.8418Z" fill="#004B61"/>
<path d="M20.4247 0C17.0067 0 13.7554 1.3468 11.2544 3.78788C6.25245 8.83838 6.25245 17.1717 11.2544 22.2222C12.8384 23.8215 14.7558 25 16.9233 25.5892V26.8519C16.7566 26.8519 16.5898 26.7677 16.4231 26.6835C16.3397 26.6835 16.2564 26.6835 16.0896 26.6835C14.6724 26.936 13.2552 27.3569 12.0047 27.862C10.5041 28.4512 9.17026 28.9562 7.83641 29.8822C7.83641 29.5455 7.50294 29.2088 7.16948 29.2088H0.666928C0.250098 29.2088 0 29.5455 0 29.8822C0 30.303 0.333464 30.5556 0.666928 30.5556H6.41918V47.4747H4.9186C4.50176 47.4747 4.25167 47.8114 4.25167 48.1481C4.25167 48.569 4.58513 48.8215 4.9186 48.8215H7.16948C7.58631 48.8215 7.83641 48.4848 7.83641 48.1481V47.7273C7.91977 47.7273 8.00314 47.8114 8.00314 47.8114C8.50333 48.064 9.00353 48.2323 9.50373 48.4848C10.5041 48.9057 11.5045 49.1582 12.5049 49.3266C13.1718 49.4108 15.4227 49.4949 16.2564 49.4949H17.3401C17.757 49.4949 18.0904 49.4949 18.5073 49.4108C19.0075 49.7475 19.6744 50 20.4247 50C21.7585 50 22.9257 49.2424 23.5092 48.1481C23.5926 48.1481 23.5926 48.1481 23.676 48.1481H25.6767C27.1773 48.1481 28.5112 46.8855 28.5112 45.2862C28.5112 44.7811 28.3444 44.1919 28.0944 43.771C29.3448 43.4343 30.2619 42.3401 30.2619 40.9933C30.2619 40.1515 29.9284 39.4781 29.3448 38.9731C30.0118 38.468 30.3452 37.7104 30.3452 36.7845C30.3452 35.8586 29.9284 35.101 29.3448 34.596C29.845 34.0909 30.2619 33.3333 30.2619 32.5758C30.2619 31.0606 29.0114 29.7138 27.4274 29.7138H26.427C26.6771 28.9562 26.7605 28.1145 26.3437 27.5253C25.8435 26.8519 25.0098 26.7677 23.9261 26.936V25.4209C26.0102 24.8316 28.011 23.6532 29.5949 22.0539C34.5969 17.0034 34.5969 8.67003 29.5949 3.61953C27.094 1.43098 23.8427 0 20.4247 0ZM20.4247 48.8215C19.8411 48.8215 19.3409 48.569 18.9241 48.2323C18.5073 47.8114 18.2572 47.3064 18.2572 46.7172V37.2896C18.3405 37.2054 18.4239 37.037 18.5073 36.9529C19.1742 35.9428 19.6744 34.7643 19.9245 33.5017C20.4247 33.5859 21.0916 33.5859 21.8419 33.5859C21.9253 33.9226 22.092 34.2593 22.2587 34.5118C21.175 34.9327 20.4247 35.9428 20.4247 37.2054C20.4247 38.0471 20.7581 38.7205 21.3417 39.2256C20.6748 39.7306 20.3413 40.4882 20.3413 41.4141C20.3413 42.4242 20.8415 43.266 21.5918 43.771C21.175 44.2761 20.9249 44.9495 20.9249 45.6229C20.9249 46.3805 21.2583 47.0539 21.7585 47.5589C21.9253 47.7273 22.092 47.8114 22.2587 47.9798C21.7585 48.4848 21.0916 48.8215 20.4247 48.8215ZM27.5108 35.6902C28.2611 35.6902 28.928 36.3636 28.928 37.1212C28.928 37.8788 28.2611 38.5522 27.5108 38.5522H27.3441H23.8427H23.1758C22.9257 38.5522 22.6756 38.468 22.5088 38.3838C22.092 38.1313 21.8419 37.7104 21.8419 37.1212C21.8419 36.6162 22.092 36.1111 22.5088 35.9428C22.6756 35.8586 22.9257 35.7744 23.1758 35.7744H23.8427H24.5096H27.3441H27.5108V35.6902ZM25.6767 46.9697H23.676C23.5092 46.9697 23.3425 46.9697 23.2591 46.8855C23.009 46.8013 22.7589 46.633 22.5922 46.3805C22.4255 46.1279 22.3421 45.8754 22.3421 45.5387C22.3421 45.202 22.4255 44.9495 22.5922 44.697C22.7589 44.4444 23.009 44.2761 23.2591 44.1919C23.4259 44.1077 23.5926 44.1077 23.676 44.1077H25.6767C26.427 44.1077 27.094 44.7811 27.094 45.5387C27.094 46.3805 26.427 46.9697 25.6767 46.9697ZM27.3441 42.7609H25.6767H23.676H23.0924C22.9257 42.7609 22.6756 42.6768 22.5088 42.6768C22.0086 42.4242 21.6752 42.0034 21.6752 41.4141C21.6752 40.8249 22.0086 40.3199 22.5088 40.1515C22.6756 40.0673 22.8423 40.0673 23.0924 40.0673H23.2591H27.4274C28.1777 40.0673 28.8446 40.7407 28.8446 41.4983C28.7613 42.0875 28.1777 42.7609 27.3441 42.7609ZM27.3441 31.4815C28.0943 31.4815 28.7613 32.1549 28.7613 32.9125C28.7613 33.67 28.0943 34.3434 27.3441 34.3434H24.5096C24.2595 34.3434 24.0094 34.2593 23.8427 34.1751V33.0808C24.2595 32.8283 24.6763 32.5758 25.0098 32.2391C25.1765 32.0707 25.3433 31.8182 25.5934 31.5657H27.3441V31.4815ZM25.1765 28.7037C25.3433 28.8721 25.1765 29.4613 24.9264 30.0505C24.7597 30.303 24.6763 30.5556 24.4262 30.8081C24.3429 30.8923 24.2595 31.0606 24.0928 31.1448C24.0094 31.229 23.926 31.3131 23.8427 31.3131C23.5926 31.4815 23.4259 31.6498 23.1758 31.734C23.009 31.8182 22.8423 31.9024 22.6756 31.9024C22.5922 31.9024 22.5088 31.9865 22.4255 31.9865C22.2587 32.0707 22.0086 32.0707 21.8419 32.0707C20.6748 32.2391 19.6744 31.9865 19.4243 31.9024C19.2576 31.8182 19.0075 31.9024 18.8407 31.9865C18.674 32.0707 18.5906 32.3232 18.5073 32.4916C18.4239 32.9966 18.3405 33.5859 18.1738 34.0909C18.0071 34.6801 17.757 35.1852 17.5069 35.6902C17.4235 35.8586 17.3401 35.9428 17.2568 36.1111C17.09 36.3636 16.9233 36.532 16.7566 36.7845C15.9229 37.8788 14.9225 38.5522 14.1722 38.9731C14.0889 39.0572 14.0055 39.1414 13.9221 39.2256C13.7554 39.3939 13.7554 39.7306 13.9221 39.899C14.0055 40.1515 14.2556 40.2357 14.5057 40.2357C14.5891 40.2357 14.7558 40.2357 14.8392 40.1515C15.4227 39.8148 16.0896 39.3939 16.7566 38.8047V46.7172C16.7566 47.3064 16.9233 47.8114 17.1734 48.3165H16.173C15.3393 48.3165 13.1718 48.2323 12.6716 48.1481C11.7546 47.9798 10.8376 47.8114 9.92056 47.3906C9.42036 47.2222 8.92017 46.9697 8.50333 46.8013C8.25324 46.7172 8.00314 46.5488 7.75304 46.4646V31.8182C7.83641 31.734 7.83641 31.734 7.91977 31.6498C9.17026 30.4714 10.4208 29.9663 12.3382 29.2929C13.5887 28.8721 14.8392 28.4512 16.0896 28.1987C16.3397 28.2828 16.5898 28.2828 16.8399 28.367C17.09 28.4512 17.3401 28.4512 17.5069 28.5354C17.757 28.6195 18.0071 28.6195 18.1738 28.6195C19.4243 28.7879 20.7581 28.8721 21.9253 28.7879C22.092 28.7879 22.1754 28.7879 22.3421 28.7879C22.5922 28.7879 22.8423 28.7879 23.009 28.7037C23.1758 28.7037 23.2591 28.7037 23.3425 28.7037C23.4259 28.7037 23.5926 28.7037 23.676 28.7037C24.5096 28.6195 25.0932 28.5354 25.1765 28.7037ZM22.5088 27.3569C22.3421 27.3569 22.1754 27.3569 22.0086 27.3569C20.7581 27.4411 19.5076 27.3569 18.2572 27.1886V26.0101C18.9241 26.0943 19.6744 26.1785 20.3413 26.1785C21.0916 26.1785 21.7585 26.0943 22.4255 26.0101V27.3569H22.5088ZM28.0944 20.7912C26.0102 22.8956 23.3425 23.9899 20.4247 23.9899C17.5069 23.9899 14.8392 22.8114 12.755 20.7912C8.50333 16.4983 8.50333 9.59596 12.755 5.30303C14.7558 3.28283 17.5069 2.18855 20.4247 2.18855C23.3425 2.18855 26.0102 3.367 28.0944 5.38721C32.2627 9.59596 32.2627 16.5825 28.0944 20.7912Z" fill="#004B61"/>
<path d="M5.20539 45.4214C5.39027 44.7495 5.00072 44.0535 4.3353 43.8668C3.66988 43.6802 2.98057 44.0735 2.79569 44.7454C2.61081 45.4173 3.00037 46.1132 3.66578 46.2999C4.3312 46.4866 5.02051 46.0933 5.20539 45.4214Z" fill="#004B61"/>
<path d="M6.9184 24.4948C7.08513 24.4948 7.25186 24.4106 7.33523 24.3264C7.66869 24.0739 7.66869 23.653 7.41859 23.3163C5.16771 20.3702 3.91722 16.8348 3.91722 13.1311C3.91722 9.67994 4.91761 6.39711 6.9184 3.61933C7.1685 3.28263 7.08513 2.86176 6.75167 2.60923C6.4182 2.35671 6.00137 2.44088 5.75127 2.77758C3.66712 5.80788 2.5 9.42741 2.5 13.1311C2.5 17.2557 3.83386 21.0436 6.33484 24.2422C6.50157 24.3264 6.75167 24.4948 6.9184 24.4948Z" fill="#004B61"/>
<path d="M34.8478 2.60961C34.5977 2.27291 34.1809 2.18874 33.8474 2.44126C33.5139 2.69379 33.4306 3.11466 33.6807 3.45136C35.6815 6.22914 36.7652 9.59615 36.7652 13.1315C36.7652 16.751 35.5981 20.2864 33.4306 23.1483C33.1805 23.485 33.2638 23.9059 33.5973 24.1584C33.764 24.2426 33.8474 24.3268 34.0141 24.3268C34.2642 24.3268 34.431 24.2426 34.5977 24.0743C36.9319 20.9598 38.1824 17.1719 38.1824 13.2157C38.1824 9.25945 37.0987 5.63992 34.8478 2.60961Z" fill="#004B61"/>
<path fill-rule="evenodd" clip-rule="evenodd" d="M25.5942 11.2792C25.5942 7.99636 23.1765 5.72363 20.092 5.72363C17.0075 5.72363 14.5898 7.91219 14.5898 11.2792C14.5898 14.7304 20.092 20.9593 20.092 20.9593C20.092 20.9593 25.5942 14.7304 25.5942 11.2792ZM18.0912 11.3634C18.0912 10.1849 19.0082 9.25899 20.1754 9.25899C21.3425 9.25899 22.2595 10.1849 22.2595 11.3634C22.2595 12.5418 21.3425 13.4677 20.1754 13.4677C19.0082 13.4677 18.0912 12.5418 18.0912 11.3634Z" fill="#F44336"/>
</svg>
