<svg width="15" height="18" viewBox="0 0 15 18" fill="none" xmlns="http://www.w3.org/2000/svg">
<path d="M13.75 7.29546C13.75 12.3863 7.25001 16.75 7.25001 16.75C7.25001 16.75 0.75 12.3863 0.75 7.29546C0.75 5.5595 1.43483 3.89464 2.65381 2.66712C3.87279 1.43961 5.5261 0.75 7.25001 0.75C8.97392 0.75 10.6272 1.43961 11.8462 2.66712C13.0652 3.89464 13.75 5.5595 13.75 7.29546Z" stroke="#CEBEBE" stroke-width="1.5" stroke-linecap="round" stroke-linejoin="round"/>
<path d="M7.2487 9.47741C8.44532 9.47741 9.41534 8.50057 9.41534 7.29559C9.41534 6.09061 8.44532 5.11377 7.2487 5.11377C6.05208 5.11377 5.08203 6.09061 5.08203 7.29559C5.08203 8.50057 6.05208 9.47741 7.2487 9.47741Z" stroke="#CEBEBE" stroke-width="1.5" stroke-linecap="round" stroke-linejoin="round"/>
</svg>
