<svg width="53" height="50" viewBox="0 0 53 50" fill="none" xmlns="http://www.w3.org/2000/svg">
<path d="M38.2616 16.5655V15.4544C38.2616 13.9392 37.0564 12.8281 35.6504 12.8281H34.4453V19.2928H35.6504C37.0564 19.2928 38.2616 18.0807 38.2616 16.5655Z" fill="#FF3300"/>
<path d="M20.4881 19.2928H21.6932V12.8281H20.4881C18.9816 12.8281 17.8769 14.0402 17.8769 15.4544V16.5655C17.7765 18.0807 18.9816 19.2928 20.4881 19.2928Z" fill="#FF3300"/>
<path d="M43.0808 46.8687C43.1813 46.6667 43.2817 46.4647 43.2817 46.1617V32.2222C43.2817 31.4142 42.6791 30.8081 41.8757 30.8081H14.7603C13.9569 30.8081 13.3543 31.4142 13.3543 32.2222V46.2627C13.3543 46.4647 13.4547 46.7677 13.5552 46.9697C11.5466 46.9697 10.1406 46.9697 10.1406 46.9697V47.2728C10.1406 48.4849 11.1449 49.495 12.35 49.495H44.286C45.4911 49.495 46.4954 48.4849 46.4954 47.2728V46.9697C46.4954 46.8687 45.0894 46.8687 43.0808 46.8687ZM28.318 37.8788C29.2218 37.8788 29.9248 38.5859 29.9248 39.495C29.9248 40.4041 29.2218 41.1112 28.318 41.1112C27.4142 41.1112 26.7112 40.4041 26.7112 39.495C26.7112 38.5859 27.4142 37.8788 28.318 37.8788Z" fill="#FF3300"/>
<path d="M25.3057 16.7676C24.904 16.7676 24.7031 17.0706 24.7031 17.3736C24.7031 17.7777 25.0044 17.9797 25.3057 17.9797H26.8121C27.2138 17.9797 27.4147 17.6767 27.4147 17.3736C27.4147 16.9696 27.1134 16.7676 26.8121 16.7676H25.3057Z" fill="#004B61"/>
<path d="M31.4332 17.9797C31.8349 17.9797 32.0358 17.6767 32.0358 17.3736C32.0358 16.9696 31.7345 16.7676 31.4332 16.7676H29.9268C29.5251 16.7676 29.3242 17.0706 29.3242 17.3736C29.3242 17.7777 29.6255 17.9797 29.9268 17.9797H31.4332Z" fill="#004B61"/>
<path d="M51.6197 48.788H46.6988C47.0001 48.2829 47.2009 47.7779 47.2009 47.1718V46.8688C47.2009 46.5657 46.8996 46.2627 46.5984 46.2627H43.9872V32.2223C43.9872 31.1112 43.0834 30.2021 41.9787 30.2021H39.9701C38.4637 27.7778 35.953 25.9596 32.9402 25.4546C32.8398 25.4546 32.8398 25.4546 32.7394 25.4546H32.6389C32.5385 25.4546 32.3377 25.5556 32.2372 25.6566C31.1325 26.6667 29.6261 27.2728 28.1197 27.2728C26.6133 27.2728 25.2073 26.6667 24.0022 25.6566C24.0022 25.6566 24.0022 25.6566 23.9017 25.6566C23.9017 25.6566 23.9017 25.6566 23.8013 25.6566H23.7009C23.7009 25.6566 23.7009 25.6566 23.6005 25.6566C23.6005 25.6566 23.6005 25.6566 23.5 25.6566H23.3996C20.3868 26.1617 17.8761 27.9798 16.3697 30.4041H14.8633C13.7586 30.4041 12.8547 31.3132 12.8547 32.4243V46.2627H10.1432C9.8419 46.2627 9.54061 46.5657 9.54061 46.8688V47.1718C9.54061 47.7779 9.74147 48.2829 10.0428 48.788H0.602565C0.200855 48.788 0 49.091 0 49.394C0 49.6971 0.301282 50.0001 0.602565 50.0001H12.453H44.2885H51.6197C52.0214 50.0001 52.2223 49.6971 52.2223 49.394C52.2223 49.091 52.0214 48.788 51.6197 48.788ZM23.2992 26.6667C24.6047 27.7778 26.312 28.3839 28.0193 28.3839C29.7265 28.3839 31.4338 27.7778 32.7394 26.6667C35.0492 27.0708 37.0577 28.3839 38.3633 30.2021H17.7757C19.0812 28.3839 21.0898 27.0708 23.2992 26.6667ZM13.9594 32.2223C13.9594 31.8182 14.2607 31.5152 14.6624 31.5152H15.4658H16.8718H19.6838H20.9893H35.4509H36.7565H39.1667H40.5727H41.9787C42.3804 31.5152 42.6817 31.8182 42.6817 32.2223V46.2627C42.6817 46.6667 42.3804 46.8688 41.9787 46.8688H14.6624C14.2607 46.8688 14.0599 46.5657 13.9594 46.2627V32.2223ZM12.3526 48.788C11.5492 48.788 10.9466 48.2829 10.7457 47.4748H13.156C13.4573 47.8789 14.0599 48.0809 14.562 48.0809H41.8783C42.4808 48.0809 42.983 47.8789 43.2843 47.4748H45.6945C45.5941 48.1819 44.8911 48.788 44.0877 48.788H12.3526Z" fill="#004B61"/>
<path d="M17.1719 16.5658C17.1719 17.879 17.9753 19.0911 19.08 19.5961C19.3813 21.9194 21.2894 23.7375 23.6997 23.7375H25.4069H25.5074H26.2104C26.9133 23.7375 27.4155 23.2325 27.4155 22.5254V22.3234C27.4155 21.6163 26.9133 21.1113 26.2104 21.1113H25.4069C24.7039 21.1113 24.2018 21.6163 24.2018 22.3234V22.4244H23.6997C22.0928 22.4244 20.7873 21.3133 20.486 19.8992H21.4903C21.5907 20.3032 21.7915 20.7072 21.892 21.1113C21.9924 21.3133 22.1932 21.5153 22.4945 21.5153C22.595 21.5153 22.6954 21.5153 22.7958 21.4143C23.0971 21.3133 23.298 20.9093 23.0971 20.6062C22.6954 19.7981 22.4945 18.8891 22.2937 17.98V17.879V17.7779V14.8486C22.2937 14.8486 22.3941 14.8486 22.3941 14.7476C22.7958 14.3436 23.1975 14.0406 23.6997 13.8385C23.9005 13.7375 24.1014 13.7375 24.4027 13.7375C25.1056 13.7375 25.8086 14.0406 26.5116 14.4446C26.7125 14.5456 27.0138 14.6466 27.3151 14.7476C28.2189 15.1517 29.1227 15.2527 30.2275 15.2527C30.4283 15.2527 30.5287 15.2527 30.7296 15.2527H30.83C30.9304 15.2527 31.0309 15.2527 31.0309 15.2527C31.9347 15.1517 32.8386 14.9497 33.7424 14.6466C33.7424 14.6466 33.8428 14.6466 33.8428 14.7476V18.687C33.1398 22.1214 30.83 24.4446 28.2189 24.4446C27.8172 24.4446 27.4155 24.3436 27.0138 24.2426C26.7125 24.1416 26.3108 24.3436 26.2104 24.6466C26.1099 24.9497 26.3108 25.3537 26.6121 25.4547C27.1142 25.5557 27.6163 25.6567 28.1185 25.6567C31.0309 25.6567 33.642 23.3335 34.7467 19.8992H35.5501C37.3578 19.8992 38.8642 18.384 38.8642 16.5658V15.4547C38.8642 14.1416 38.0608 12.9294 36.9561 12.4244V10.2022C36.9561 5.95974 33.3407 2.52539 28.9219 2.52539H27.1142C22.6954 2.52539 19.08 5.95974 19.08 10.2022V12.4244C17.9753 12.9294 17.1719 14.1416 17.1719 15.4547V16.5658ZM33.642 13.2325C32.6377 13.6365 31.7339 13.8385 30.83 13.9396L28.6206 11.7173C28.4198 11.5153 27.9176 11.5153 27.7168 11.7173C27.5159 11.9193 27.5159 12.4244 27.7168 12.6264L29.0223 13.9396C28.5202 13.8385 28.018 13.7375 27.6163 13.5355C27.4155 13.4345 27.2146 13.3335 26.9133 13.2325C26.1099 12.8284 25.2061 12.4244 24.2018 12.4244C23.8001 12.4244 23.4988 12.5254 23.0971 12.6264C22.7958 12.7274 22.4945 12.8284 22.1933 13.0305C22.1933 12.5254 22.1933 12.0204 22.3941 11.5153C22.4945 11.1113 22.8962 9.89914 23.9005 8.99005C24.8044 8.18197 26.1099 7.67691 27.8172 7.67691C30.83 7.67691 32.5373 8.99005 33.3407 11.7173C33.642 12.2224 33.7424 12.7274 33.642 13.2325ZM37.5587 15.4547V16.5658C37.5587 17.6769 36.6548 18.586 35.5501 18.586H35.048V18.384V17.6769V16.2628V15.1517V13.8385V13.5355H35.5501H35.6505C36.1527 13.5355 36.5544 13.7375 36.8557 14.0406C37.3578 14.3436 37.5587 14.8486 37.5587 15.4547ZM20.3856 10.2022C20.3856 6.66681 23.3984 3.83852 27.1142 3.83852H28.9219C32.6377 3.83852 35.6505 6.66681 35.6505 10.2022V12.1214H35.5501H34.8471C34.8471 11.8183 34.7467 11.5153 34.6463 11.3133C33.642 7.97994 31.4326 6.36378 27.9176 6.36378C25.9091 6.36378 24.3022 6.86883 23.0971 7.97995C21.7915 9.09106 21.3898 10.5052 21.189 11.1113C21.0885 11.5153 20.9881 11.8183 20.9881 12.1214H20.3856H20.2851V10.2022H20.3856ZM18.4774 15.4547C18.4774 14.8486 18.7787 14.3436 19.1804 13.9396C19.4817 13.6365 19.9838 13.4345 20.3856 13.4345H20.486H20.9881V13.7375V17.98V18.485H20.486H20.3856C19.8834 18.485 19.4817 18.283 19.08 17.98C18.6783 17.5759 18.4774 17.0709 18.4774 16.4648V15.4547Z" fill="#004B61"/>
<path d="M14.6646 27.5759C15.0663 27.5759 15.2672 27.2729 15.2672 26.9698C15.2672 26.5658 14.9659 26.3638 14.6646 26.3638C11.451 26.3638 8.83984 28.99 8.83984 32.2224V37.2729C8.83984 37.6769 9.14113 37.8789 9.44241 37.8789C9.84412 37.8789 10.045 37.5759 10.045 37.2729V32.2224C10.1454 29.6971 12.154 27.5759 14.6646 27.5759Z" fill="#004B61"/>
<path d="M47.1026 44.9494C47.5043 44.9494 47.7051 44.6464 47.7051 44.3434V36.6666C47.7051 36.2626 47.4038 36.0605 47.1026 36.0605C46.7009 36.0605 46.5 36.3636 46.5 36.6666V44.2424C46.5 44.6464 46.8013 44.9494 47.1026 44.9494Z" fill="#004B61"/>
<path d="M47.203 35.3536C47.5912 35.3536 47.906 35.037 47.906 34.6465C47.906 34.256 47.5912 33.9395 47.203 33.9395C46.8147 33.9395 46.5 34.256 46.5 34.6465C46.5 35.037 46.8147 35.3536 47.203 35.3536Z" fill="#004B61"/>
<path d="M40.1717 12.9293C40.56 12.9293 40.8747 12.6127 40.8747 12.2222C40.8747 11.8317 40.56 11.5151 40.1717 11.5151C39.7835 11.5151 39.4688 11.8317 39.4688 12.2222C39.4688 12.6127 39.7835 12.9293 40.1717 12.9293Z" fill="#004B61"/>
<path d="M9.54284 39.899C9.93109 39.899 10.2458 39.5824 10.2458 39.1919C10.2458 38.8014 9.93109 38.4849 9.54284 38.4849C9.15458 38.4849 8.83984 38.8014 8.83984 39.1919C8.83984 39.5824 9.15458 39.899 9.54284 39.899Z" fill="#004B61"/>
<path d="M39.4659 10.2021C39.4659 10.6061 39.7672 10.8081 40.0684 10.8081C40.3697 10.8081 40.671 10.5051 40.671 10.2021C40.671 7.17175 39.4659 4.24246 37.1561 2.12124C36.8548 1.91922 36.4531 1.91922 36.2522 2.12124C36.0513 2.42427 36.0513 2.82831 36.2522 3.03033C38.4616 4.94953 39.4659 7.47478 39.4659 10.2021Z" fill="#004B61"/>
<path d="M8.93918 13.6364C9.7426 13.6364 10.546 13.5354 11.249 13.4344C11.7512 13.9394 12.3537 14.3435 12.9563 14.7475C13.6593 15.1515 14.4627 15.3536 15.1657 15.4546H15.2661C15.467 15.4546 15.6678 15.3536 15.7683 15.1515C15.8687 14.9495 15.8687 14.6465 15.7683 14.4445C15.467 13.9394 15.2661 13.3334 15.1657 12.7273C15.0653 12.4243 15.0653 12.0202 15.1657 11.7172C16.873 10.4041 17.7768 8.68688 17.7768 6.8687C17.7768 3.13132 13.7597 0 8.93918 0C4.11866 0 0.101562 3.03031 0.101562 6.76769C0.101562 10.5051 4.01824 13.6364 8.93918 13.6364ZM8.93918 1.31313C13.1571 1.31313 16.4712 3.83839 16.4712 6.8687C16.4712 8.38385 15.6678 9.798 14.1614 10.8081C14.061 10.9091 13.9606 11.1111 13.8601 11.2121C13.7597 11.8182 13.7597 12.3233 13.8601 12.9293C13.8601 13.2323 13.9606 13.5354 14.061 13.8384C13.8601 13.7374 13.6593 13.6364 13.4584 13.5354C12.8559 13.2323 12.2533 12.8283 11.8516 12.2222C11.7512 12.1212 11.5503 12.0202 11.3494 12.0202H11.249C10.4456 12.2222 9.64218 12.3233 8.83876 12.3233C4.6208 12.3233 1.30669 9.798 1.30669 6.76769C1.30669 3.73738 4.72123 1.31313 8.93918 1.31313Z" fill="#004B61"/>
<path d="M12.0495 7.87886C12.4932 7.87886 12.8529 7.51707 12.8529 7.07078C12.8529 6.62449 12.4932 6.2627 12.0495 6.2627C11.6058 6.2627 11.2461 6.62449 11.2461 7.07078C11.2461 7.51707 11.6058 7.87886 12.0495 7.87886Z" fill="#004B61"/>
<path d="M8.83858 7.87886C9.28229 7.87886 9.642 7.51707 9.642 7.07078C9.642 6.62449 9.28229 6.2627 8.83858 6.2627C8.39486 6.2627 8.03516 6.62449 8.03516 7.07078C8.03516 7.51707 8.39486 7.87886 8.83858 7.87886Z" fill="#004B61"/>
<path d="M5.82686 7.87886C6.27057 7.87886 6.63028 7.51707 6.63028 7.07078C6.63028 6.62449 6.27057 6.2627 5.82686 6.2627C5.38314 6.2627 5.02344 6.62449 5.02344 7.07078C5.02344 7.51707 5.38314 7.87886 5.82686 7.87886Z" fill="#004B61"/>
</svg>
