<svg width="49" height="36" viewBox="0 0 49 36" fill="none" xmlns="http://www.w3.org/2000/svg">
<path d="M12.6629 12.3457L12.8352 12.0004C12.9214 12.3457 13.0076 12.691 13.0937 13.0363C13.2661 12.7774 13.3522 12.5184 13.4384 12.2594V12.173L13.5246 12.0867C13.4384 11.7414 13.4384 11.3961 13.5246 11.0507V10.9644L15.248 3.88525H10.2501L7.2342 10.7917C6.88952 12.5184 7.92355 14.1586 9.56077 14.5903C10.164 14.763 10.681 14.6766 11.198 14.504C11.9735 13.986 12.4905 13.209 12.6629 12.3457Z" fill="#F44336"/>
<path d="M43.4301 10.5326L40.5003 3.79883H36.0195L37.7429 10.878C37.7429 11.137 37.7429 11.396 37.7429 11.5686C37.7429 11.5686 37.7429 11.655 37.8291 11.655L38.0014 12.0003V12.0866C38.4323 13.8132 40.1557 14.8492 41.8791 14.4175C41.9652 14.4175 41.9652 14.4175 42.0514 14.3312C43.1716 13.6406 43.7748 12.0866 43.4301 10.5326Z" fill="#F44336"/>
<path d="M21.6277 3.88525H16.6299L14.8203 11.1371C14.8203 11.3097 14.8203 11.4824 14.8203 11.655C14.9065 11.7414 14.9065 11.914 14.9065 12.0867C15.165 13.468 16.2852 14.504 17.6639 14.6766C18.1809 14.763 18.6118 14.6766 19.0426 14.504C19.8181 13.8997 20.3352 13.0363 20.5075 11.914L20.5937 11.2234L20.6798 10.8781L20.5937 11.5687C20.5937 12.0867 20.6798 12.5184 20.8522 13.0363C21.0245 12.691 21.1969 12.3457 21.1969 11.914V11.7414C21.1969 11.655 21.1969 11.655 21.1969 11.5687L21.6277 3.88525Z" fill="#F44336"/>
<path d="M34.6426 3.88525H29.5586L30.0756 11.3961L30.1618 11.914C30.248 12.7774 30.6788 13.5543 31.3682 14.0723C32.0575 14.5903 32.833 14.8493 33.6947 14.763C33.9532 14.763 34.2117 14.6766 34.3841 14.5903C35.1596 13.986 35.6766 13.1227 35.7628 12.0867L35.9351 12.432C36.0213 12.6047 36.0213 12.7774 36.1075 13.0363C36.2798 12.691 36.366 12.3457 36.4522 12.0004C36.4522 11.7414 36.5383 11.4824 36.4522 11.2234L34.6426 3.88525Z" fill="#F44336"/>
<path d="M22.9235 3.88516L22.4065 10.9643H22.4927L22.4065 11.3096L22.3203 11.6549C22.4065 13.2952 23.7852 14.6765 25.5086 14.6765C25.9394 14.6765 26.2841 14.5902 26.6288 14.5039C27.4905 13.8132 28.0937 12.6909 28.0937 11.4823V11.396L28.1798 11.9139C28.1798 12.2593 28.266 12.6046 28.4383 12.8636C28.6107 12.4319 28.783 12.0003 28.783 11.4823V11.2233L28.266 3.79883H22.9235V3.88516Z" fill="#F44336"/>
<path d="M19.821 25.6401H10.8594V28.2301H19.821V25.6401Z" fill="#F44336"/>
<path d="M29.0352 23.1364L29.3798 23.7407H36.3596L34.55 20.2012L29.0352 23.1364Z" fill="#F44336"/>
<path d="M9.56598 3.19442H39.0359C39.7253 3.19442 40.3285 2.59011 40.3285 1.89946C40.3285 1.20881 39.7253 0.604492 39.0359 0.604492H9.56598C8.87662 0.604492 8.27344 1.20881 8.27344 1.89946C8.27344 2.59011 8.87662 3.19442 9.56598 3.19442Z" fill="#F44336"/>
<path d="M40.9276 35.9999C41.3084 35.9999 41.617 35.6907 41.617 35.3093C41.617 34.9279 41.3084 34.6187 40.9276 34.6187C40.5469 34.6187 40.2383 34.9279 40.2383 35.3093C40.2383 35.6907 40.5469 35.9999 40.9276 35.9999Z" fill="#004B61"/>
<path d="M39.0348 34.6187H6.37662C6.03195 34.6187 5.77344 34.8776 5.77344 35.223C5.77344 35.5683 6.03195 35.8273 6.37662 35.8273H39.0348C39.3795 35.8273 39.638 35.5683 39.638 35.223C39.638 34.8776 39.3795 34.6187 39.0348 34.6187Z" fill="#004B61"/>
<path d="M48 32.0286H42.2267V17.3524C42.2267 17.007 41.9682 16.748 41.6235 16.748C41.2788 16.748 41.0203 17.007 41.0203 17.3524V32.115H38.4352C38.0905 32.115 37.832 32.374 37.832 32.7193C37.832 33.0646 38.0905 33.3236 38.4352 33.3236H48C48.3447 33.3236 48.6032 33.0646 48.6032 32.7193C48.6032 32.374 48.3447 32.0286 48 32.0286Z" fill="#004B61"/>
<path d="M26.8849 32.7193C26.8849 32.374 26.6264 32.115 26.2817 32.115H7.66908V17.3524C7.66908 17.007 7.41057 16.748 7.0659 16.748C6.72122 16.748 6.46271 17.007 6.46271 17.3524V32.115H0.603186C0.258508 32.115 0 32.374 0 32.7193C0 33.0646 0.258508 33.3236 0.603186 33.3236H26.1955C26.6264 33.3236 26.8849 33.0646 26.8849 32.7193Z" fill="#004B61"/>
<path d="M19.8187 18.5615H10.8571C10.5124 18.5615 10.2539 18.8205 10.2539 19.1658V28.2306C10.2539 28.5759 10.5124 28.8349 10.8571 28.8349H19.8187C20.1634 28.8349 20.4219 28.5759 20.4219 28.2306V19.2522C20.5081 18.9068 20.1634 18.5615 19.8187 18.5615ZM19.2155 27.54H11.5464V19.8565H19.2155V27.54Z" fill="#004B61"/>
<path d="M35.1597 33.3238C35.8736 33.3238 36.4523 32.744 36.4523 32.0289C36.4523 31.3137 35.8736 30.7339 35.1597 30.7339C34.4459 30.7339 33.8672 31.3137 33.8672 32.0289C33.8672 32.744 34.4459 33.3238 35.1597 33.3238Z" fill="#004B61"/>
<path d="M29.4683 33.3238C30.1822 33.3238 30.7609 32.744 30.7609 32.0289C30.7609 31.3137 30.1822 30.7339 29.4683 30.7339C28.7545 30.7339 28.1758 31.3137 28.1758 32.0289C28.1758 32.744 28.7545 33.3238 29.4683 33.3238Z" fill="#004B61"/>
<path d="M38.3444 25.0364C38.6891 25.0364 38.9476 24.7774 38.9476 24.432C38.9476 24.0867 38.6891 23.8277 38.3444 23.8277H26.8839L26.1945 21.6694C26.1083 21.4105 25.8498 21.2378 25.5913 21.2378H22.7477C22.403 21.2378 22.1445 21.4968 22.1445 21.8421C22.1445 22.1874 22.403 22.4464 22.7477 22.4464H25.1605L27.487 29.6982C27.5732 29.9572 27.8317 30.1299 28.0902 30.1299H36.9657C37.3104 30.1299 37.5689 29.8709 37.5689 29.5256C37.5689 29.1802 37.3104 28.9213 36.9657 28.9213H28.6072L28.1764 27.6263H37.655C37.9997 27.6263 38.2582 27.3673 38.2582 27.022C38.2582 26.6766 37.9997 26.4177 37.655 26.4177H27.7455L27.3147 25.1227H38.3444V25.0364Z" fill="#004B61"/>
<path d="M7.92512 15.7986C8.2698 15.8849 8.61448 15.8849 8.95916 15.8849C10.5102 15.8849 11.9751 15.0216 12.8368 13.7266C13.5261 14.9353 14.7325 15.7122 16.1112 15.8849C16.2836 15.8849 16.4559 15.8849 16.6282 15.8849C17.5761 15.8849 18.6101 15.5396 19.3857 14.9353C19.8165 14.5899 20.1612 14.1583 20.5059 13.7266C21.2814 15.1079 22.7463 15.9712 24.3835 15.9712C26.0207 15.9712 27.4856 15.0216 28.2611 13.7266C28.5196 14.1583 28.8643 14.5899 29.3813 14.9353C30.1568 15.5396 31.1047 15.8849 32.1387 15.8849C32.3111 15.8849 32.4834 15.8849 32.6558 15.8849C34.0345 15.7122 35.2408 14.8489 35.9302 13.7266C36.8781 15.3669 38.86 16.2302 40.8419 15.7986C43.2546 15.1943 44.7195 12.777 44.1163 10.3597V10.2734L40.8419 2.93525C40.8419 2.93525 40.8419 2.84892 40.7557 2.84892C40.928 2.58993 41.0142 2.24461 41.0142 1.89928C41.0142 0.86331 40.1525 0 39.1185 0H9.56234C8.52831 0 7.66661 0.86331 7.66661 1.89928C7.66661 2.24461 7.75278 2.58993 7.92512 2.84892C7.92512 2.84892 7.92512 2.93525 7.83895 2.93525L4.56451 10.2734V10.3597C4.0475 12.777 5.51238 15.1943 7.92512 15.7986ZM12.0613 12.1727C11.6304 13.8993 9.90702 14.9353 8.18363 14.5036C6.97726 14.2446 6.11556 13.295 5.85706 12.0863L12.0613 12.1727ZM21.1091 10.8777L21.5399 3.79857H26.9686L27.3994 10.8777H21.1091ZM28.7781 10.8777L28.3473 3.79857H33.4313L35.1547 10.8777H28.7781ZM20.3335 3.8849L19.9027 10.964H13.5261L15.2495 3.8849H20.3335ZM18.524 13.9856C17.8346 14.5036 17.0591 14.7626 16.1974 14.6763C14.8187 14.5036 13.7846 13.554 13.5261 12.1727H19.7303C19.558 12.8633 19.1272 13.554 18.524 13.9856ZM24.2973 14.7626C22.7463 14.7626 21.4537 13.6403 21.1952 12.1727H27.4856C27.1409 13.6403 25.8484 14.7626 24.2973 14.7626ZM32.3972 14.6763C31.5356 14.7626 30.76 14.5036 30.0707 13.9856C29.4675 13.554 29.1228 12.8633 28.9505 12.1727H35.1547C34.81 13.4676 33.776 14.5036 32.3972 14.6763ZM40.411 14.5899C38.6876 15.0216 36.9642 13.9856 36.5334 12.259H42.7376C42.4791 13.295 41.6174 14.2446 40.411 14.5899ZM42.8238 10.705C42.8238 10.7914 42.8238 10.7914 42.8238 10.8777H36.4472L34.7238 3.79857H39.7217H39.8078L42.8238 10.705ZM9.56234 1.29497H39.0323C39.377 1.29497 39.7217 1.55396 39.7217 1.98561C39.7217 2.33094 39.4631 2.58993 39.1185 2.58993H9.47617C9.13149 2.58993 8.87299 2.24461 8.87299 1.98561C8.95916 1.55396 9.21766 1.29497 9.56234 1.29497ZM8.87299 3.8849H13.957L12.2336 10.964H5.85706C5.85706 10.8777 5.85706 10.8777 5.85706 10.7914L8.87299 3.8849Z" fill="#004B61"/>
<path d="M21.7155 13.813C21.6294 13.8993 21.5432 14.072 21.457 14.1583C21.8017 14.59 22.3187 14.9353 22.8357 15.108C22.4049 14.7626 22.0602 14.331 21.7155 13.813Z" fill="#F44336"/>
<path d="M30.5896 15.0216C30.1588 14.6763 29.8141 14.2446 29.4694 13.813C29.3833 13.8993 29.2971 14.072 29.2109 14.1583C29.6418 14.5036 30.0726 14.849 30.5896 15.0216Z" fill="#F44336"/>
<path d="M37.2234 13.6401C37.1372 13.8128 37.051 13.8991 36.9648 14.0718C37.3957 14.5034 37.9989 14.8488 38.6021 15.1078C37.9989 14.7624 37.4819 14.2445 37.2234 13.6401Z" fill="#F44336"/>
<path d="M15.336 15.108C14.9051 14.7626 14.4743 14.331 14.1296 13.813C14.0434 13.9857 13.9573 14.072 13.8711 14.1583C14.3019 14.59 14.819 14.849 15.336 15.108Z" fill="#F44336"/>
</svg>
