<svg width="35" height="20" viewBox="0 0 35 20" fill="none" xmlns="http://www.w3.org/2000/svg">
<path d="M12.4409 20H1.49772H0L0.817448 18.7413L12.4185 0.844755C12.4829 0.73007 12.5781 0.629371 12.6956 0.556643C13.0792 0.318881 13.5803 0.436364 13.8182 0.816783L18.3086 7.98881L19.252 9.49371L18.7621 10.249L17.6171 8.41958C16.9313 8.21538 15.9766 10.9091 15.2516 10.8056C14.2521 10.6629 13.1212 7.32867 12.4073 8.1986L9.96895 11.1692L7.41302 10.0643L1.49772 19.1832H12.9672L12.4409 20ZM33.3306 19.9385H16.7325H15.6435L16.237 19.0238L20.5958 12.2993L20.8001 11.9832L24.6578 6.03077C24.7054 5.94685 24.7726 5.87413 24.8594 5.82098C25.1365 5.64755 25.5033 5.73427 25.674 6.01119L28.9354 11.2168L33.8121 19.0014C33.8261 19.021 33.8401 19.0406 33.8513 19.0629L34.4 19.9385H33.3306ZM16.7325 19.3455H33.3306L28.4343 11.5273C27.936 11.379 27.2445 13.3343 26.7154 13.2587C25.9904 13.1552 25.1673 10.7357 24.6494 11.365L22.8801 13.5217L21.0241 12.7189L16.7325 19.3455ZM21.1053 0C22.393 0 23.44 1.04336 23.44 2.33287C23.44 3.62238 22.3958 4.66573 21.1053 4.66573C19.8175 4.66573 18.7705 3.62238 18.7705 2.33287C18.7705 1.04336 19.8147 0 21.1053 0Z" fill="#018390"/>
</svg>
