<svg width="37" height="26" viewBox="0 0 37 26" fill="none" xmlns="http://www.w3.org/2000/svg">
<path fill-rule="evenodd" clip-rule="evenodd" d="M28.2647 26L25.0293 15.1974H25.8681L30.7511 26H28.2647ZM15.6527 3.13363C15.5658 2.98684 15.6167 2.79511 15.7665 2.71123C15.9133 2.62436 16.105 2.67528 16.1889 2.82507L16.5873 3.51409C16.6742 3.66088 16.6233 3.8526 16.4735 3.93648C16.3267 4.02336 16.135 3.97243 16.0511 3.82265L15.6527 3.13363ZM18.1271 4.15817C18.894 4.15817 19.5861 4.46972 20.0893 4.97001C20.5926 5.47329 20.9012 6.1653 20.9012 6.93221C20.9012 7.69912 20.5896 8.39113 20.0893 8.89441C19.5861 9.39769 18.894 9.70625 18.1271 9.70625C17.3602 9.70625 16.6682 9.3947 16.1649 8.89441C15.6617 8.39113 15.3531 7.69912 15.3531 6.93221C15.3531 6.1653 15.6646 5.47329 16.1649 4.97001C16.6682 4.46673 17.3602 4.15817 18.1271 4.15817ZM19.6699 5.38941C19.2745 4.99398 18.7293 4.75132 18.1271 4.75132C17.525 4.75132 16.9798 4.99697 16.5843 5.38941C16.1889 5.78485 15.9462 6.33007 15.9462 6.93221C15.9462 7.53435 16.1919 8.07957 16.5843 8.47501C16.9798 8.87044 17.525 9.1131 18.1271 9.1131C18.7293 9.1131 19.2745 8.86745 19.6699 8.47501C20.0654 8.07957 20.308 7.53435 20.308 6.93221C20.311 6.33007 20.0654 5.78485 19.6699 5.38941ZM17.8815 2.40567C17.8815 2.23491 18.0193 2.09411 18.193 2.09411C18.3638 2.09411 18.5046 2.23192 18.5046 2.40567V3.20253C18.5046 3.37329 18.3668 3.51409 18.193 3.51409C18.0223 3.51409 17.8815 3.37628 17.8815 3.20253V2.40567ZM20.1792 2.88798C20.2631 2.74119 20.4548 2.68727 20.6016 2.77414C20.7484 2.85802 20.8023 3.04975 20.7154 3.19654L20.317 3.88556C20.2331 4.03235 20.0414 4.08627 19.8946 3.99939C19.7478 3.91551 19.6939 3.72379 19.7808 3.577L20.1792 2.88798ZM21.9257 4.45474C22.0725 4.36787 22.2642 4.4188 22.3481 4.56858C22.435 4.71537 22.3841 4.9071 22.2343 4.99098L21.5453 5.38941C21.3985 5.47629 21.2067 5.42536 21.1229 5.27557C21.036 5.12878 21.0869 4.93706 21.2367 4.85318L21.9257 4.45474ZM22.6567 6.68656C22.8274 6.68656 22.9682 6.82436 22.9682 6.99812C22.9682 7.16887 22.8304 7.30967 22.6567 7.30967H21.8598C21.689 7.30967 21.5483 7.17187 21.5483 6.99812C21.5483 6.82736 21.6861 6.68656 21.8598 6.68656H22.6567ZM22.1714 8.98428C22.3182 9.06816 22.3721 9.25989 22.2852 9.40668C22.2013 9.55347 22.0096 9.60739 21.8628 9.52052L21.1738 9.12208C21.027 9.0382 20.9731 8.84648 21.0599 8.69969C21.1438 8.5529 21.3356 8.49897 21.4823 8.58585L22.1714 8.98428ZM20.6046 10.7308C20.6915 10.8776 20.6405 11.0693 20.4908 11.1532C20.344 11.2401 20.1522 11.1891 20.0684 11.0393L19.6699 10.3503C19.5831 10.2035 19.634 10.0118 19.7838 9.92793C19.9306 9.84106 20.1223 9.89199 20.2062 10.0418L20.6046 10.7308ZM18.3758 11.4617C18.3758 11.6325 18.238 11.7733 18.0642 11.7733C17.8935 11.7733 17.7527 11.6355 17.7527 11.4617V10.6649C17.7527 10.4941 17.8905 10.3533 18.0642 10.3533C18.235 10.3533 18.3758 10.4911 18.3758 10.6649V11.4617ZM16.0781 10.9764C15.9942 11.1232 15.8025 11.1772 15.6557 11.0903C15.5089 11.0064 15.4549 10.8147 15.5418 10.6679L15.9403 9.97886C16.0241 9.83207 16.2159 9.77815 16.3626 9.86502C16.5094 9.9489 16.5634 10.1406 16.4765 10.2874L16.0781 10.9764ZM14.3315 9.40967C14.1848 9.49655 13.993 9.44562 13.9092 9.29584C13.8223 9.14905 13.8732 8.95732 14.023 8.87344L14.712 8.47501C14.8588 8.38813 15.0505 8.43906 15.1344 8.58885C15.2213 8.73564 15.1704 8.92736 15.0206 9.01124L14.3315 9.40967ZM13.6006 7.18085C13.4298 7.18085 13.289 7.04305 13.289 6.8693C13.289 6.69854 13.4268 6.55774 13.6006 6.55774H14.3975C14.5682 6.55774 14.709 6.69555 14.709 6.8693C14.709 7.04006 14.5712 7.18085 14.3975 7.18085H13.6006ZM14.0859 4.88313C13.9391 4.79925 13.8852 4.60753 13.9721 4.46074C14.0559 4.31395 14.2477 4.26002 14.3945 4.3469L15.0835 4.74533C15.2303 4.82921 15.2842 5.02094 15.1973 5.16773C15.1134 5.31452 14.9217 5.36844 14.7749 5.28156L14.0859 4.88313ZM2.5224 12.8817C2.70814 10.7188 3.0826 8.93635 4.63139 8.23235C5.39231 10.5301 4.96392 12.7409 4.17305 15.2064H0.317547V17.3963H8.35508L9.27177 15.2064H5.59901C6.28803 11.3599 5.8177 9.80511 5.26349 8.4091C6.21913 9.01124 7.06991 10.3054 7.88475 12.3635C9.02912 10.2335 8.30115 8.66374 5.58703 7.64819C7.13881 7.16588 8.59474 7.783 9.96079 8.99027C9.22983 6.23421 7.1448 5.56616 5.28146 7.14191C5.5361 5.16473 4.72126 4.69141 3.63082 4.25703C4.14608 5.03891 4.53253 5.85375 4.47262 6.79141C2.78902 5.24562 1.38702 5.8178 0.0928675 7.17786C1.3331 6.88727 2.61826 6.76445 3.70571 7.49241C1.76149 7.24676 0.674038 8.3432 0 9.78414C0.814837 9.0382 1.58174 8.5529 2.39658 8.46602C1.5428 10.0148 1.91726 11.3839 2.5254 12.8847L2.5224 12.8817ZM30.7721 15.2034V10.9255H27.2491C26.659 10.9794 26.5391 10.5151 26.7908 10.1257L29.0406 7.48941L28.9747 7.42351H27.7704C27.333 7.48941 27.1712 7.01609 27.4378 6.68356L29.8614 3.83763H29.1544C28.711 3.84961 28.6002 3.44219 28.8848 3.05574L31.0926 0.434482C31.2424 0.254738 31.4042 -0.00588997 31.6678 0.000101478C31.8925 0.00609293 32.0303 0.218789 32.1651 0.374567L34.5137 3.11266C34.7684 3.47814 34.5527 3.86159 34.1063 3.86159H33.4712L35.8768 6.68356C36.1644 6.96816 36.0176 7.4265 35.6851 7.48941H34.2861L36.3831 9.9519L36.6138 10.2215C36.7905 10.4222 36.7006 10.8806 36.3232 10.9255H32.5426V15.2034H36.8085V17.3933H28.6601L27.7464 15.2034H30.7721ZM11.6054 26L13.6335 15.1974H12.636L9.40358 26H11.6054ZM8.33411 26L11.5695 15.1974H10.7307L5.84766 26H8.33411ZM18.8162 26V15.1974H19.8317L20.8443 26H18.8162ZM21.9557 26L20.8323 15.1974H21.8478L23.9838 26H21.9557ZM24.9963 26L22.9682 15.1974H23.9658L27.1982 26H24.9963ZM17.7856 26V15.1974H16.7701L15.7575 26H17.7856ZM14.6431 26L15.7665 15.1974H14.751L12.615 26H14.6431ZM0.317547 22.7077H5.94651L4.45464 26H0.317547V22.7077ZM31.0627 22.7077H36.8115V26H32.5486L31.0627 22.7077ZM0.317547 18.9301H7.65707L6.64152 21.1679H0.317547V18.9301ZM29.3581 18.9301H36.8115V21.1679H30.3677L29.3581 18.9301Z" fill="#018390"/>
</svg>
