<svg width="29" height="30" viewBox="0 0 29 30" fill="none" xmlns="http://www.w3.org/2000/svg">
<path d="M25.9787 18.6183C26.0178 18.6183 26.0544 18.6231 26.091 18.628C26.3303 18.213 26.5476 17.776 26.7429 17.3194C26.7478 17.3097 26.7502 17.3023 26.7551 17.2926C27.0505 16.5968 27.2727 15.8741 27.4216 15.1246C27.5388 14.5435 27.6096 13.9478 27.6364 13.3375H24.1232C24.0598 15.1221 23.5275 16.88 22.5339 18.6158H25.9787V18.6183ZM2.6998 27.2242C2.70224 26.609 3.05136 26.0084 3.61777 25.337L0.331621 23.2594C0.1241 23.1691 0.128983 23.0421 0.248613 22.8932L0.944417 22.2999C1.07137 22.2218 1.20565 22.1876 1.34969 22.2291L5.40733 22.9151L8.0465 19.9952L0.15828 14.6534C-0.0419161 14.5362 -0.0590061 14.4044 0.146073 14.2506L1.28377 13.3423L11.5719 16.233L14.6115 12.9835C15.632 12.1021 16.6208 11.7066 17.3825 11.8946C17.8024 11.9971 17.9489 12.1241 18.0783 12.5171C18.3298 13.2886 17.9391 14.3238 17.0163 15.3907L13.7692 18.4278L16.6598 28.716L15.7516 29.8537C15.5978 30.0587 15.466 30.0416 15.3488 29.8439L10.007 21.9532L7.08702 24.5924L7.77306 28.65C7.81212 28.7941 7.78039 28.9284 7.70226 29.0553L7.109 29.7511C6.96007 29.8707 6.83312 29.8756 6.74278 29.6681L4.66514 26.382C3.98886 26.9508 3.38828 27.2999 2.77304 27.2999C2.712 27.2975 2.6998 27.278 2.6998 27.2242ZM25.3659 19.7389H21.8259C20.8566 21.1427 19.5846 22.5318 18.0124 23.9039L17.6755 22.7076C18.7643 21.7213 19.6872 20.7325 20.4465 19.7389H16.8405L16.6549 19.0797L17.1481 18.6183H21.2302C22.3386 16.8726 22.9343 15.1124 23.0051 13.3399H20.8639C20.9201 12.9615 20.9274 12.5855 20.8835 12.2193H22.9807C22.8342 10.4859 22.1921 8.72807 21.0422 6.94095H16.5475V9.15287C16.1984 9.21147 15.8493 9.31157 15.4977 9.44829C15.4733 9.45805 15.4513 9.46782 15.4269 9.47758V6.94339H10.9323C9.78235 8.72807 9.14026 10.4883 8.99377 12.2217H11.9723L10.9249 13.3423H10.9103L6.92345 12.2217H7.8756C8.005 10.4737 8.58605 8.71586 9.62366 6.94339H5.87852C5.6417 7.35599 5.42686 7.78812 5.23155 8.23978C5.22666 8.24955 5.22422 8.25687 5.21934 8.26664C4.92393 8.96244 4.70176 9.6851 4.55283 10.4346C4.48203 10.7886 4.42832 11.1451 4.38926 11.5088L3.2955 11.2012C3.33456 10.8692 3.38828 10.5396 3.45175 10.2149C3.61533 9.39702 3.86191 8.60111 4.18906 7.82719C4.19394 7.81742 4.19638 7.80765 4.20127 7.79545C4.5333 7.02396 4.92637 6.29886 5.38291 5.6177C5.83946 4.93899 6.35704 4.3091 6.93566 3.73293C7.51183 3.15431 8.14172 2.63673 8.82043 2.18019C9.50159 1.72364 10.2291 1.32813 10.9982 0.99854H11.0006C11.7819 0.664066 12.5875 0.415041 13.4152 0.249025C14.2526 0.0830082 15.1071 0 15.9884 0C16.8673 0 17.7243 0.0830082 18.5544 0.249025C19.3722 0.4126 20.1681 0.659183 20.9421 0.986333C20.9518 0.991216 20.964 0.993657 20.9738 0.99854C21.7453 1.33057 22.4704 1.72364 23.1516 2.18019C23.8327 2.63673 24.4602 3.15431 25.0363 3.73293C25.6174 4.3091 26.1325 4.93899 26.5891 5.6177C27.0456 6.29886 27.4411 7.0264 27.7707 7.79545V7.79789C28.1052 8.57914 28.3542 9.38481 28.5202 10.2125C28.6862 11.0425 28.7693 11.8995 28.7693 12.7784C28.7693 13.6573 28.6862 14.5142 28.5202 15.3443C28.3567 16.1622 28.1101 16.9581 27.7829 17.7296C27.7805 17.7393 27.7756 17.7491 27.7707 17.7613C27.4387 18.5328 27.0456 19.2579 26.5891 19.9391C26.1325 20.6178 25.6174 21.2477 25.0363 21.8238C24.4577 22.4024 23.8303 22.92 23.1516 23.3766C22.4704 23.8331 21.7429 24.2286 20.9738 24.5582H20.9714C20.1901 24.8927 19.3844 25.1417 18.5568 25.3077C18.5104 25.3175 18.464 25.3248 18.4201 25.3346L18.1149 24.253C18.1881 24.2408 18.2638 24.2262 18.3371 24.2115C19.0964 24.0602 19.8288 23.8331 20.5319 23.5328C21.2472 23.2252 21.9138 22.8639 22.5314 22.4513C23.1491 22.0362 23.7204 21.565 24.2477 21.0377L24.2502 21.0353C24.653 20.6324 25.0266 20.2003 25.3659 19.7389ZM6.60851 5.82278H10.339C11.401 4.29201 12.8073 2.75148 14.5602 1.20118C14.2501 1.2378 13.9425 1.28663 13.6373 1.34766C12.8781 1.49903 12.1481 1.72608 11.4425 2.02638C10.7272 2.334 10.0607 2.69532 9.44299 3.10792C8.82531 3.52297 8.25402 3.99416 7.72667 4.52151L7.72423 4.52395C7.3214 4.92922 6.94786 5.36379 6.60851 5.82278ZM17.4118 1.20118C19.1647 2.75148 20.571 4.28957 21.633 5.82278H25.3659C25.0266 5.36379 24.653 4.92922 24.2477 4.52395L24.2453 4.52151C23.7204 3.99416 23.1467 3.52297 22.529 3.10792C21.9113 2.69532 21.2448 2.334 20.5295 2.02638C20.5197 2.02149 20.5124 2.01905 20.5026 2.01417C19.8068 1.71876 19.0841 1.49659 18.3346 1.34766C18.0319 1.28663 17.7243 1.2378 17.4118 1.20118ZM26.0935 6.94339H22.3508C23.3908 8.71342 23.9694 10.4737 24.0988 12.2217H27.634C27.6071 11.6114 27.5339 11.0157 27.4191 10.4346C27.2678 9.67534 27.0407 8.94535 26.7404 8.23978C26.5451 7.78812 26.3327 7.35599 26.0935 6.94339ZM16.5475 1.92872V5.82278H20.256C19.2819 4.5386 18.0465 3.23976 16.5475 1.92872ZM15.4269 5.82278V1.92872C13.9279 3.23976 12.6925 4.5386 11.7184 5.82278H15.4269Z" fill="#018390"/>
</svg>
