<svg width="21" height="30" viewBox="0 0 21 30" fill="none" xmlns="http://www.w3.org/2000/svg">
<path d="M4.40911 11.3344C4.46526 11.3002 4.52629 11.2856 4.58732 11.2905C4.47991 10.7388 4.497 10.2066 4.51897 9.5865C4.57756 7.96308 4.99012 6.66435 6.26932 5.53895C8.20033 3.83986 12.0208 3.69338 14.1496 5.15568C14.4645 5.37295 14.7575 5.62927 15.0211 5.93198C15.8853 6.92068 16.6518 9.09581 16.6348 10.436C16.6323 10.7461 16.581 11.061 16.4736 11.3808C16.4688 11.4125 16.4614 11.4467 16.4541 11.4858C16.686 11.6322 16.8691 11.8129 17.0034 12.0155C17.2036 12.3182 17.289 12.6698 17.2695 13.0384C17.2499 13.3924 17.1279 13.7659 16.9082 14.1272C16.6518 14.5495 16.2612 14.9596 15.7413 15.316C15.2872 16.3755 14.65 17.4399 13.8835 18.2895C13.2366 19.0072 12.4944 19.576 11.684 19.8738C10.8539 20.179 9.96045 20.2034 9.03523 19.8128C8.55431 19.6126 8.06851 19.2977 7.57782 18.8583C7.12863 18.453 6.72339 17.955 6.35477 17.3716C6.01544 16.832 5.70784 16.2217 5.42954 15.5455C5.30748 15.5089 5.1903 15.465 5.08045 15.4137C4.92421 15.3405 4.78018 15.2526 4.64835 15.1525C4.26508 14.8595 4.01119 14.4592 3.86228 14.0173C3.69872 13.5266 3.66698 12.9822 3.73533 12.4818C3.76951 12.2255 3.84031 12.0009 3.95016 11.8129C4.06734 11.6152 4.2187 11.4565 4.40911 11.3344ZM15.026 21.2555C14.8478 21.2067 14.7404 21.0236 14.7892 20.8454C14.838 20.6672 15.0211 20.5598 15.1993 20.6086C15.4117 20.6648 15.4581 20.677 15.5118 20.6916C16.9692 21.0773 18.2313 21.4142 19.303 22.7154C20.1941 23.7969 20.2795 24.6073 20.4016 25.7523C20.4211 25.928 20.4406 26.1136 20.4724 26.3699L20.7262 28.3912C20.7458 28.545 20.6579 28.6842 20.5236 28.7428C18.7684 29.6338 14.8136 30 10.8613 30C6.19853 30 1.49429 29.4825 0.368888 28.711C0.259033 28.6354 0.207767 28.5084 0.227297 28.3839L0.656952 25.5301C0.925487 23.7431 1.48453 22.6666 2.36093 21.9586C3.22512 21.2604 4.36517 20.9528 5.82502 20.6965C6.00811 20.6648 6.18144 20.7868 6.21318 20.9699C6.24491 21.153 6.12285 21.3263 5.93976 21.3581C4.58244 21.5973 3.53027 21.8756 2.78082 22.481C2.04113 23.0791 1.56265 24.0288 1.32097 25.6302L0.925487 28.2594C1.54068 28.567 2.84429 28.8233 4.50432 29.0089C2.4366 25.059 8.64707 22.0538 10.4365 26.9607C12.7093 21.9879 18.4901 25.1469 16.4028 28.8502C16.3613 28.9234 16.315 28.9942 16.2661 29.0626C17.8432 28.8868 19.1761 28.6158 20.0354 28.235L19.8132 26.4529C19.7913 26.2698 19.7668 26.0403 19.7424 25.8231C19.6326 24.7953 19.5569 24.0678 18.7952 23.1426C17.8627 22.0099 16.6958 21.6998 15.3507 21.3434L15.026 21.2555ZM7.22384 20.6477C7.45088 20.6477 7.63641 20.8332 7.63641 21.0602C7.63641 21.2873 7.45088 21.4728 7.22384 21.4728C6.99681 21.4728 6.81128 21.2873 6.81128 21.0602C6.80883 20.8332 6.99437 20.6477 7.22384 20.6477ZM13.7102 20.6477C13.4831 20.6477 13.2976 20.8332 13.2976 21.0602C13.2976 21.2873 13.4831 21.4728 13.7102 21.4728C13.9372 21.4728 14.1227 21.2873 14.1227 21.0602C14.1252 20.8332 13.9396 20.6477 13.7102 20.6477ZM12.9143 21.5558C12.6873 21.5558 12.5018 21.7413 12.5018 21.9684C12.5018 22.1954 12.6873 22.3809 12.9143 22.3809C13.1414 22.3809 13.3269 22.1954 13.3269 21.9684C13.3269 21.7413 13.1414 21.5558 12.9143 21.5558ZM11.85 22.1881C11.6229 22.1881 11.4374 22.3736 11.4374 22.6007C11.4374 22.8277 11.6229 23.0132 11.85 23.0132C12.077 23.0132 12.2625 22.8277 12.2625 22.6007C12.265 22.3736 12.0794 22.1881 11.85 22.1881ZM10.4682 22.2857L11.1786 22.9961L10.4682 23.7065L9.75783 22.9961L10.4682 22.2857ZM10.4682 22.752L10.7123 22.9961L10.4682 23.2403L10.2241 22.9961L10.4682 22.752ZM9.08405 22.1881C9.31109 22.1881 9.49662 22.3736 9.49662 22.6007C9.49662 22.8277 9.31109 23.0132 9.08405 23.0132C8.85702 23.0132 8.67149 22.8277 8.67149 22.6007C8.66905 22.3736 8.85458 22.1881 9.08405 22.1881ZM8.01968 21.5558C8.24671 21.5558 8.43225 21.7413 8.43225 21.9684C8.43225 22.1954 8.24671 22.3809 8.01968 22.3809C7.79265 22.3809 7.60711 22.1954 7.60711 21.9684C7.60711 21.7413 7.79265 21.5558 8.01968 21.5558ZM2.1461 20.5085C2.30478 20.6037 2.3536 20.8112 2.25839 20.9699C2.16319 21.1286 1.95568 21.1774 1.797 21.0822L0.161384 20.0813C0.0246757 19.9983 -0.0314725 19.8323 0.017352 19.6883C0.288328 18.8924 0.542215 18.0966 0.774131 17.2983C1.00605 16.4927 1.22087 15.6676 1.41373 14.8156C1.45035 14.6496 1.49185 14.4616 1.53579 14.2517C1.57241 14.0735 1.61147 13.8855 1.65053 13.6853C1.85315 12.6576 1.96545 11.581 2.07774 10.502C2.32431 8.11444 2.57575 5.70983 3.78416 3.71535C4.59465 2.38001 5.71517 1.32296 7.11399 0.680914C8.41272 0.0876966 9.94336 -0.146661 11.6815 0.0925791C13.2366 0.304965 14.7867 1.02513 16.3296 2.4093C16.3467 2.42395 16.3613 2.44104 16.376 2.45812C16.7666 2.98543 17.1401 3.52006 17.4526 4.07177C17.7724 4.63325 18.0263 5.21671 18.1776 5.83189C18.5755 7.46751 18.7489 9.19346 18.9271 10.9707C19.2127 13.8196 19.513 16.7979 20.7775 19.6614C20.8434 19.8152 20.7897 19.9885 20.653 20.0789L19.1175 21.1628C18.9661 21.2702 18.7562 21.2336 18.6512 21.0822C18.5438 20.9309 18.5804 20.7209 18.7318 20.6159L20.0549 19.6834C18.8392 16.8076 18.5438 13.8611 18.2606 11.039C18.0848 9.28623 17.914 7.58225 17.5282 5.99302C17.3964 5.44618 17.1645 4.92132 16.8716 4.40622C16.5786 3.89112 16.2295 3.38823 15.8584 2.88778C14.4303 1.61102 13.0095 0.949448 11.5936 0.756592C9.98731 0.536882 8.57872 0.749268 7.39473 1.29122C6.12285 1.87467 5.09998 2.83896 4.35785 4.06201C3.22756 5.92466 2.98588 8.25603 2.74664 10.5703C2.6319 11.6713 2.51961 12.7698 2.3121 13.8147C2.27548 13.9978 2.23642 14.1906 2.19248 14.3933C2.15586 14.5641 2.11436 14.7546 2.06798 14.9645C1.87512 15.8165 1.65785 16.6563 1.41861 17.4839C1.20379 18.2284 0.976753 18.9486 0.739954 19.6517L2.1461 20.5085ZM4.73135 11.8251L4.72403 11.83C4.61662 11.8983 4.52873 11.9911 4.46282 12.1058C4.39202 12.2303 4.34564 12.3817 4.32123 12.5648C4.26508 12.9822 4.28949 13.4339 4.42376 13.8367C4.53606 14.1711 4.72403 14.4738 5.00965 14.6911C5.10974 14.7668 5.21716 14.8327 5.33189 14.8864C5.45151 14.9425 5.57846 14.9865 5.71761 15.0207C5.81282 15.0426 5.88849 15.111 5.92267 15.1964C6.20097 15.8946 6.511 16.5196 6.85278 17.064C7.19211 17.601 7.56317 18.0575 7.9733 18.4262C8.41028 18.8216 8.84237 19.0999 9.2647 19.2757C10.041 19.6028 10.7905 19.5833 11.4838 19.327C12.1991 19.0633 12.8631 18.5507 13.449 17.9013C14.1911 17.0811 14.8038 16.0435 15.2359 15.0133C15.2628 14.9499 15.3092 14.8986 15.3678 14.8693C15.8414 14.5544 16.1905 14.1955 16.4102 13.8293C16.5786 13.551 16.6714 13.2727 16.686 13.0115C16.7007 12.765 16.6445 12.5355 16.5176 12.3426C16.4492 12.2401 16.3613 12.1449 16.2515 12.0619C16.0293 12.5623 15.6607 13.2239 15.1798 13.8806V10.873C13.8029 10.2359 12.9021 8.8346 12.4432 6.72538C11.8939 10.7363 6.96751 10.563 5.72737 11.2954V13.6365C5.49301 13.3069 5.28307 12.97 5.09265 12.6283C4.93642 12.3451 4.8168 12.079 4.73135 11.8251ZM8.71787 2.04556C9.98487 1.18625 11.4301 1.37666 12.6214 2.28724C12.9363 2.52648 13.2024 2.82187 13.4148 3.17829C13.5954 3.48344 13.9128 4.10351 13.322 4.19872C13.0901 4.23533 12.6824 3.91798 12.3675 3.81789C11.9623 3.6885 11.5472 3.60306 11.1371 3.55912C10.3681 3.47856 9.6138 3.54203 8.96443 3.72024C8.61046 3.81789 8.26869 3.93751 7.94156 4.08886C7.78776 4.15966 7.47773 4.36716 7.38985 4.10107C7.18967 3.48344 8.26136 2.35315 8.71787 2.04556Z" fill="#018390"/>
</svg>
