<svg width="34" height="26" viewBox="0 0 34 26" fill="none" xmlns="http://www.w3.org/2000/svg">
<path fill-rule="evenodd" clip-rule="evenodd" d="M4.43657 15.9106C4.76133 12.1042 5.42462 8.97222 8.14931 7.73097C9.39056 11.4822 8.83186 15.1042 7.63189 19.0729C3.83934 19.604 0.404576 20.826 0.404576 23.2507C2.2348 23.7489 3.5366 23.0553 4.62923 21.6104C7.07319 23.7324 8.63095 24.3791 11.0887 21.4865C12.6932 24.2855 15.8693 23.6305 17.5509 21.5746C19.4086 23.9856 22.6177 24.1727 23.969 21.1783C25.9231 24.1865 28.9643 23.7434 30.401 21.3627C31.3147 22.5049 31.7908 23.2452 33.3348 23.3636C32.3193 20.0774 28.6808 18.5389 24.0048 18.3628C23.2948 15.9711 22.9782 13.7803 23.7296 11.5125C25.4112 12.2776 25.8185 14.2097 26.0194 16.5601L26.0167 16.5628C26.6772 14.9335 27.0846 13.4473 26.1571 11.7657C27.0405 11.8593 27.8744 12.385 28.7579 13.1941C28.0286 11.6309 26.8451 10.4419 24.7314 10.7089C25.9094 9.91898 27.3047 10.0538 28.6506 10.3676C27.2497 8.88966 25.725 8.27041 23.8975 9.94651C23.8342 8.92819 24.2553 8.04473 24.814 7.19704C23.6305 7.66767 22.7471 8.18234 23.0223 10.3263C20.9994 8.61719 18.7371 9.34102 17.9444 12.3327C19.4279 11.0199 21.0077 10.3538 22.692 10.874C19.7471 11.9776 18.9573 13.6785 20.1985 15.9931C21.082 13.7583 22.0067 12.3519 23.0415 11.6997C22.4773 13.1226 21.9902 14.6996 22.5544 18.3463C20.7379 18.3848 18.7976 18.605 16.8188 18.9903C15.5913 18.7508 12.9024 18.6242 10.0483 18.8224C10.9648 12.9051 10.1777 10.3511 9.2612 8.04197C10.9428 9.09882 12.44 11.3777 13.8712 14.9996C15.883 11.2511 14.6033 8.49334 9.82816 6.7044C12.5584 5.85671 15.1179 6.94109 17.5261 9.0658C16.2408 4.21364 12.5721 3.04395 9.29423 5.81268C9.74009 2.33938 8.30894 1.50546 6.39064 0.740346C7.29337 2.11645 7.97592 3.54761 7.87409 5.19618C4.91546 2.47975 2.44397 3.48431 0.170637 5.87873C2.35314 5.36957 4.61547 5.15215 6.52275 6.43193C3.09899 5.99983 1.18345 7.92913 0 10.4612C1.43115 9.14836 2.78249 8.29793 4.21364 8.14381C2.71093 10.8685 3.37422 13.2739 4.44208 15.9161L4.43657 15.9106ZM18.0298 5.90625C17.972 6.00533 17.8481 6.03836 17.749 5.98332C17.65 5.92552 17.6169 5.80167 17.672 5.70259L17.9362 5.24297C17.994 5.14389 18.1178 5.11086 18.2169 5.16591C18.316 5.22371 18.349 5.34756 18.294 5.44663L18.0298 5.90625ZM19.3921 1.37336C19.9013 1.37336 20.3636 1.57977 20.6967 1.91279C21.0297 2.24581 21.2361 2.70818 21.2361 3.21734C21.2361 3.7265 21.0297 4.18887 20.6967 4.52189C20.3636 4.85491 19.9013 5.06132 19.3921 5.06132C18.8829 5.06132 18.4206 4.85491 18.0876 4.52189C17.7545 4.18887 17.5481 3.7265 17.5481 3.21734C17.5481 2.70818 17.7545 2.24581 18.0876 1.91279C18.4233 1.57977 18.8829 1.37336 19.3921 1.37336ZM21.9186 1.57152C22.0177 1.51372 22.1443 1.54675 22.2021 1.64582C22.2572 1.7449 22.2241 1.87151 22.1251 1.92655L21.6654 2.19076C21.5664 2.24856 21.4398 2.21553 21.3847 2.11645C21.3269 2.01737 21.3599 1.89077 21.459 1.83573L21.9186 1.57152ZM22.4058 3.05496C22.5186 3.05496 22.6122 3.14853 22.6122 3.26138C22.6122 3.37422 22.5186 3.46779 22.4058 3.46779H21.8774C21.7645 3.46779 21.6709 3.37422 21.6709 3.26138C21.6709 3.14853 21.7645 3.05496 21.8774 3.05496H22.4058ZM17.7463 0.693558C17.6885 0.594479 17.7215 0.467877 17.8206 0.412832C17.9197 0.355036 18.0463 0.388062 18.1013 0.487142L18.3655 0.946762C18.4233 1.04584 18.3903 1.17244 18.2912 1.22749C18.1921 1.28528 18.0655 1.25226 18.0105 1.15318L17.7463 0.693558ZM19.2297 0.206416C19.2297 0.0935753 19.3206 0 19.4361 0C19.549 0 19.6426 0.0935753 19.6426 0.206416V0.734842C19.6426 0.847682 19.549 0.941258 19.4361 0.941258C19.3233 0.941258 19.2297 0.847682 19.2297 0.734842V0.206416ZM20.7572 0.528425C20.815 0.429346 20.9389 0.396319 21.0379 0.451363C21.137 0.50916 21.17 0.63301 21.115 0.732089L20.8508 1.19171C20.793 1.29079 20.6691 1.32382 20.5701 1.26877C20.471 1.21097 20.438 1.08713 20.493 0.988045L20.7572 0.528425ZM22.0838 4.58244C22.1829 4.64024 22.2159 4.76409 22.1608 4.86316C22.103 4.96224 21.9792 4.99527 21.8801 4.94023L21.4205 4.67601C21.3214 4.61822 21.2884 4.49437 21.3434 4.39529C21.4012 4.29621 21.5251 4.26318 21.6242 4.31823L22.0838 4.58244ZM16.8683 4.86592C16.7692 4.92371 16.6426 4.89069 16.5876 4.79161C16.5298 4.69253 16.5628 4.56593 16.6619 4.51088L17.1215 4.24667C17.2206 4.18887 17.3472 4.2219 17.4023 4.32098C17.4601 4.42006 17.427 4.54666 17.3279 4.6017L16.8683 4.86592ZM16.3812 3.38247C16.2683 3.38247 16.1748 3.2889 16.1748 3.17606C16.1748 3.06322 16.2683 2.96964 16.3812 2.96964H16.9096C17.0225 2.96964 17.116 3.06322 17.116 3.17606C17.116 3.2889 17.0225 3.38247 16.9096 3.38247H16.3812ZM16.7032 1.85499C16.6041 1.7972 16.5711 1.67335 16.6261 1.57427C16.6839 1.47519 16.8078 1.44216 16.9069 1.49721L17.3665 1.76142C17.4656 1.81921 17.4986 1.94306 17.4435 2.04214C17.3857 2.14122 17.2619 2.17425 17.1628 2.11921L16.7032 1.85499ZM21.0407 5.74387C21.0985 5.84295 21.0655 5.96956 20.9664 6.0246C20.8673 6.0824 20.7407 6.04937 20.6857 5.95029L20.4214 5.49067C20.3636 5.39159 20.3967 5.26499 20.4957 5.20994C20.5948 5.15215 20.7214 5.18517 20.7765 5.28425L21.0407 5.74387ZM19.5572 6.22826C19.5572 6.3411 19.4637 6.43468 19.3508 6.43468C19.238 6.43468 19.1444 6.3411 19.1444 6.22826V5.69984C19.1444 5.587 19.238 5.49342 19.3508 5.49342C19.4637 5.49342 19.5572 5.587 19.5572 5.69984V6.22826ZM0.255956 24.6626C0.668788 24.7562 1.10089 24.7975 1.53023 24.7865C2.12746 24.7699 2.71644 24.6543 3.22835 24.4424C3.82833 24.1947 4.38153 23.7957 4.61547 23.1764C4.83014 23.7709 5.41911 24.2057 5.99433 24.4424C6.50624 24.6543 7.09796 24.7727 7.69244 24.7865C8.28967 24.803 8.89516 24.7176 9.43735 24.525C10.307 24.2195 10.4914 23.8204 11.0639 23.1461C11.3942 23.8535 11.9721 24.2718 12.6905 24.525C13.2327 24.7149 13.8381 24.8002 14.4354 24.7865C15.0326 24.7699 15.6216 24.6543 16.1335 24.4424C16.7087 24.2057 17.2977 23.7681 17.5123 23.1764C17.7463 23.7957 18.305 24.1947 18.8995 24.4424C19.4114 24.6543 20.0031 24.7727 20.5976 24.7865C21.1948 24.803 21.8003 24.7176 22.3425 24.525C23.2094 24.2195 23.3966 23.8177 23.969 23.1461C24.5415 23.8149 24.7314 24.2195 25.5984 24.525C26.1405 24.7149 26.746 24.8002 27.3433 24.7865C27.9405 24.7699 28.5295 24.6543 29.0414 24.4424C29.6386 24.1947 30.1946 23.7984 30.4285 23.1764C30.6432 23.7681 31.2321 24.203 31.8074 24.4424C32.3193 24.6543 32.911 24.7727 33.5055 24.7865C33.6101 24.7892 33.7146 24.7892 33.8165 24.7865V25.9974C32.9578 26.0194 32.0881 25.8736 31.334 25.5626C30.9432 25.4002 30.6377 25.2433 30.3624 25.0452C29.9909 25.2984 29.6221 25.5158 29.5093 25.5626C28.1937 26.1075 26.5231 26.1433 25.1828 25.6699C24.7397 25.513 24.3296 25.3039 23.969 25.0342C23.6085 25.3039 23.1957 25.513 22.7553 25.6699C21.4122 26.1433 19.7416 26.1048 18.4261 25.5626C18.3132 25.5158 17.9472 25.2956 17.5729 25.0452C17.2977 25.2433 16.9922 25.4029 16.6014 25.5626C15.2858 26.1075 13.6152 26.1433 12.2721 25.6699C11.8813 25.5323 11.4988 25.3589 11.1602 25.136C10.7089 25.3562 10.1887 25.5488 9.84743 25.6699C8.5071 26.1433 6.83375 26.1048 5.52094 25.5626C5.13013 25.4002 4.82463 25.2433 4.54941 25.0452C4.17786 25.2984 3.80907 25.5158 3.69623 25.5626C2.65864 25.9919 1.39813 26.1048 0.253204 25.9011V24.6626H0.255956Z" fill="#018390"/>
</svg>
