<svg width="28" height="30" viewBox="0 0 28 30" fill="none" xmlns="http://www.w3.org/2000/svg">
<path fill-rule="evenodd" clip-rule="evenodd" d="M3.71223 3.27308C4.28348 2.46015 4.98899 1.77172 5.80681 1.25173C6.60265 0.746396 7.49371 0.39974 8.46532 0.253265C9.95204 0.028671 10.7625 0.258148 11.7073 0.529126C12.1467 0.65607 12.6228 0.790338 13.2111 0.878223C13.443 0.9124 13.6652 0.936813 13.8702 0.946578C14.0753 0.956343 14.2804 0.953901 14.4879 0.939254C15.1787 0.887988 15.6645 0.69513 16.1357 0.507154C17.0658 0.136086 17.9569 -0.217894 19.8708 0.165381C20.7374 0.338709 21.5504 0.707336 22.3023 1.21756C23.1103 1.76683 23.8378 2.46991 24.4799 3.26576C24.7215 3.56359 24.6752 4.00057 24.3773 4.24225C24.265 4.33258 24.1332 4.38385 23.9989 4.39361C25.0951 5.37499 25.9715 6.51261 26.6208 7.7967C27.6022 9.7326 28.0685 11.9981 28.0026 14.5809C27.9928 14.9617 27.6779 15.2645 27.2946 15.2571C27.2531 15.2571 27.2141 15.2523 27.175 15.2449V15.2474L26.1863 15.0496C26.7551 17.0417 26.9821 18.9166 26.6794 20.6108C26.3084 22.6932 25.1585 24.4753 22.9077 25.8301C22.6001 26.0157 22.2046 25.9302 21.9971 25.6471L21.2306 24.6144C21.0792 25.005 20.9059 25.3785 20.7081 25.7349C20.2907 26.4893 19.7756 27.1557 19.1628 27.7319C17.5297 29.2699 15.8232 30.0144 14.0973 29.9998C12.3518 29.9851 10.6307 29.1917 8.99751 27.6513C8.3872 27.0776 7.86966 26.438 7.42535 25.7447C7.18367 25.3663 6.96152 24.9733 6.75889 24.5656C6.61974 24.817 6.52454 25.0905 6.4635 25.381C6.38294 25.7545 6.01432 25.9937 5.63836 25.9132C5.57489 25.8985 5.51386 25.8765 5.45771 25.8472C3.6634 24.9269 2.32804 23.5964 1.70064 21.6361C1.15625 19.9175 1.16601 17.7423 1.91059 14.9593C1.60543 15.0399 1.31493 15.179 1.07324 15.3377C0.753441 15.5476 0.323783 15.4573 0.113836 15.1375C0.0283927 15.0057 -0.00822596 14.8568 0.001539 14.7127C-0.0253147 12.2227 0.345754 9.97185 1.27587 8.02862C1.94721 6.62491 2.90173 5.39208 4.20047 4.35699C3.91973 4.32526 3.67805 4.12263 3.60725 3.83212C3.55843 3.63194 3.60237 3.43176 3.71223 3.27308ZM9.37591 12.8281C9.23919 12.9624 9.01948 12.9575 8.88766 12.8208C8.75339 12.6841 8.75827 12.4644 8.89498 12.3325C9.67618 11.5709 10.3182 11.3145 10.8699 11.3829C11.4412 11.4537 11.8684 11.8589 12.2273 12.4155C12.3298 12.5767 12.2834 12.7915 12.1223 12.894C11.9612 12.9965 11.7464 12.9502 11.6438 12.789C11.3899 12.396 11.1116 12.1128 10.7845 12.0713C10.4378 12.0274 9.98621 12.2349 9.37591 12.8281ZM10.3866 21.6922C10.8577 21.4725 11.2508 21.2821 11.595 21.1186C12.8449 20.518 13.465 20.2177 14.1388 20.2251C14.8077 20.2299 15.4107 20.5327 16.6142 21.1308C16.9828 21.3139 17.4076 21.5262 17.8275 21.7289C19.8952 20.5278 20.2907 18.6505 19.4485 16.2678C20.6056 15.1448 21.9312 14.2074 21.9361 12.5791C21.9385 11.5464 21.6138 10.6456 21.0084 9.77166C19.3874 7.4354 17.1244 7.03015 13.9996 7.82844C10.3426 6.88124 7.5108 7.58431 6.34144 11.5098C5.69207 13.5361 6.57824 15.0106 8.41406 16.1433C7.70854 19.085 8.40673 20.9013 10.3866 21.6922ZM17.2733 22.2293C16.8803 22.0389 16.5751 21.8875 16.3041 21.7533C15.1934 21.2016 14.6368 20.9233 14.1339 20.9184C13.6212 20.9135 13.05 21.1893 11.8953 21.7435C11.617 21.8778 11.3069 22.0267 10.9627 22.1903C11.3973 22.8323 11.9124 23.3132 12.5446 23.5574C13.4455 23.9895 14.3829 23.904 15.3374 23.5574C16.06 23.345 16.6996 22.8885 17.2733 22.2293ZM12.6936 17.5714C12.53 17.4176 12.4714 17.2785 12.5324 17.1564C12.6643 16.8952 12.9914 16.944 13.2331 16.944L15.1397 16.9367C15.3447 16.9367 15.4497 16.9221 15.5596 17.1174C15.623 17.2321 15.5449 17.3981 15.3325 17.6129L13.9923 18.7579L12.6936 17.5714ZM19.1702 12.3325C19.3069 12.4668 19.3093 12.6841 19.1775 12.8208C19.0432 12.9575 18.8259 12.9599 18.6892 12.8281C18.0643 12.2178 17.6053 12.0176 17.2538 12.0738C16.9169 12.1275 16.6337 12.4424 16.3701 12.8672C16.27 13.0307 16.0551 13.082 15.894 12.9819C15.7305 12.8818 15.6792 12.667 15.7793 12.5059C16.1381 11.9224 16.5654 11.4854 17.1415 11.3926C17.7054 11.2974 18.3646 11.5464 19.1702 12.3325Z" fill="#018390"/>
</svg>
