<svg width="16" height="16" viewBox="0 0 16 16" fill="none" xmlns="http://www.w3.org/2000/svg">
<path d="M7.99976 4.11614C5.89223 4.11614 4.146 5.83227 4.146 7.9699C4.146 10.1075 5.86213 11.8237 7.99976 11.8237C10.1374 11.8237 11.8535 10.0774 11.8535 7.9699C11.8535 5.86237 10.1073 4.11614 7.99976 4.11614ZM7.99976 10.4387C6.64492 10.4387 5.53094 9.32474 5.53094 7.9699C5.53094 6.61506 6.64492 5.50108 7.99976 5.50108C9.3546 5.50108 10.4686 6.61506 10.4686 7.9699C10.4686 9.32474 9.3546 10.4387 7.99976 10.4387Z" fill="white"/>
<path d="M12.004 4.89883C12.4862 4.89883 12.8771 4.50792 12.8771 4.02571C12.8771 3.5435 12.4862 3.1526 12.004 3.1526C11.5218 3.1526 11.1309 3.5435 11.1309 4.02571C11.1309 4.50792 11.5218 4.89883 12.004 4.89883Z" fill="white"/>
<path d="M14.2622 1.76774C13.4794 0.954832 12.3655 0.533327 11.1009 0.533327H4.89879C2.27944 0.533327 0.533203 2.27956 0.533203 4.89892V11.071C0.533203 12.3656 0.954708 13.4796 1.79772 14.2925C2.61062 15.0753 3.69449 15.4667 4.9289 15.4667H11.0708C12.3655 15.4667 13.4493 15.0452 14.2321 14.2925C15.045 13.5097 15.4665 12.3957 15.4665 11.1011V4.89892C15.4665 3.6344 15.045 2.55053 14.2622 1.76774ZM14.1418 11.1011C14.1418 12.0344 13.8106 12.7871 13.2687 13.2989C12.7268 13.8107 11.9741 14.0817 11.0708 14.0817H4.9289C4.02568 14.0817 3.27299 13.8107 2.73105 13.2989C2.18912 12.757 1.91815 12.0043 1.91815 11.071V4.89892C1.91815 3.99569 2.18912 3.243 2.73105 2.70107C3.24288 2.18924 4.02568 1.91827 4.9289 1.91827H11.1311C12.0343 1.91827 12.787 2.18924 13.3289 2.73118C13.8407 3.27311 14.1418 4.0258 14.1418 4.89892V11.1011Z" fill="white"/>
</svg>
