<svg width="28" height="36" viewBox="0 0 28 36" fill="none" xmlns="http://www.w3.org/2000/svg">
<path d="M10.1037 32.0764H17.4519C17.4519 34.0367 15.7985 35.6405 13.7778 35.6405C11.757 35.6405 10.1037 34.0367 10.1037 32.0764ZM6.42963 30.2944H21.1259V26.7304H6.42963V30.2944ZM27.5556 13.3652C27.5556 20.1725 22.669 23.8079 20.6299 24.9483H6.92563C4.88652 23.8079 0 20.1725 0 13.3652C0 5.9876 6.17246 0 13.7778 0C21.3831 0 27.5556 5.9876 27.5556 13.3652ZM23.8815 13.3652C23.8815 7.96565 19.344 3.56405 13.7778 3.56405C8.21156 3.56405 3.67407 7.96565 3.67407 13.3652C3.67407 17.7668 6.41126 20.2973 7.99111 21.3843H19.5644C21.1443 20.2973 23.8815 17.7668 23.8815 13.3652Z" fill="white"/>
</svg>
