<svg width="26" height="25" viewBox="0 0 26 25" fill="none" xmlns="http://www.w3.org/2000/svg">
<path d="M13 6.75L14.261 9.76316L14.872 11.2237L16.432 11.3553L19.643 11.6316L17.199 13.7763L16.016 14.8158L16.367 16.3684L17.095 19.5395L14.339 17.8553L13 17.0132L11.661 17.8289L8.905 19.5132L9.633 16.3421L9.984 14.7895L8.801 13.75L6.357 11.6053L9.568 11.3289L11.128 11.1974L11.739 9.73684L13 6.75ZM13 0L9.347 8.72368L0 9.52632L7.098 15.75L4.966 25L13 20.0921L21.034 25L18.902 15.75L26 9.52632L16.653 8.72368L13 0Z" fill="white"/>
</svg>
