<svg width="15" height="12" viewBox="0 0 15 12" fill="none" xmlns="http://www.w3.org/2000/svg">
<path d="M14.4 1.42049C13.8706 1.66179 13.3009 1.82455 12.7031 1.89739C13.3135 1.52271 13.7815 0.92921 14.0022 0.221212C13.4313 0.568617 12.7993 0.820702 12.1261 0.956787C11.5874 0.368087 10.8195 0 9.96977 0C8.3384 0 7.0157 1.35635 7.0157 3.02952C7.0157 3.26662 7.04172 3.49773 7.09228 3.71984C4.63689 3.59335 2.45978 2.38747 1.00262 0.554528C0.74831 1.00175 0.60274 1.52211 0.60274 2.07783C0.60274 3.12874 1.12422 4.05615 1.91696 4.59929C1.4329 4.5834 0.977188 4.44702 0.578771 4.22011C0.578479 4.2327 0.578479 4.24559 0.578479 4.25848C0.578479 5.72603 1.59688 6.95019 2.94852 7.22896C2.70064 7.2979 2.43961 7.33506 2.1701 7.33506C1.97951 7.33506 1.79448 7.31618 1.61413 7.28051C1.99033 8.48399 3.08123 9.36014 4.37381 9.38442C3.36272 10.197 2.08913 10.6814 0.704756 10.6814C0.466525 10.6814 0.231216 10.667 0 10.6389C1.30779 11.4988 2.86053 12 4.52874 12C9.96305 12 12.9344 7.38392 12.9344 3.38053C12.9344 3.24924 12.9317 3.11825 12.9262 2.98816C13.5032 2.56192 14.0042 2.02808 14.4 1.42049Z" fill="#0E0E0E"/>
</svg>
