<svg width="26" height="26" viewBox="0 0 26 26" fill="none" xmlns="http://www.w3.org/2000/svg">
<path fill-rule="evenodd" clip-rule="evenodd" d="M13.0008 0.00247762C13.6927 -0.0273898 14.2386 0.215816 14.7887 0.567826C15.487 1.0137 16.2741 1.89693 17.2453 2.45587C18.6101 3.24309 21.1407 2.1572 22.4356 4.09858C23.191 5.22928 23.227 6.11677 23.282 6.99359C23.3433 7.93868 23.5063 8.8091 24.4669 10.0891C26.0559 12.2076 26.386 13.6178 25.5672 15.0877C25.0086 16.0904 23.8342 16.6472 23.5613 17.2808C22.9836 18.6312 23.6226 19.6488 22.8313 21.2233C22.2812 22.3156 21.4327 23.0345 20.3028 23.4015C19.3506 23.7108 18.3921 23.2628 17.6304 23.5871C16.2889 24.1546 15.3008 25.4751 14.2323 25.8101C13.8197 25.9381 13.4092 26.0021 13.0008 25.9999C12.5903 26.0021 12.1798 25.9402 11.7693 25.8101C10.7029 25.4751 9.71269 24.1567 8.37121 23.5871C7.60737 23.2628 6.65098 23.7108 5.69882 23.4015C4.56893 23.0345 3.72045 22.3156 3.17032 21.2233C2.37686 19.6488 3.01797 18.6312 2.43822 17.2808C2.16527 16.6472 0.990939 16.0904 0.432341 15.0877C-0.386514 13.6178 -0.0543171 12.2076 1.53261 10.0891C2.49323 8.8091 2.65615 7.93868 2.71752 6.99359C2.77465 6.11677 2.8085 5.22928 3.56388 4.09858C4.85881 2.1572 7.38943 3.24309 8.75419 2.45587C9.72539 1.89693 10.5104 1.0137 11.2108 0.567826C11.763 0.215816 12.3089 -0.0273898 13.0008 0.00247762ZM10.7558 11.4993L12.4189 13.0951L15.2817 10.1617C15.5653 9.87153 15.743 9.63899 16.0921 10.0017L17.2263 11.1729C17.5987 11.5441 17.5796 11.7617 17.2284 12.1073L13.0664 16.2269C12.3258 16.9586 12.4549 17.0034 11.7038 16.2525L8.84729 13.3874C8.69071 13.2167 8.70764 13.0439 8.87903 12.8732L10.1951 11.4972C10.3919 11.2881 10.5506 11.3009 10.7558 11.4993ZM12.9627 5.8821C16.9724 5.8821 20.2203 9.15898 20.2203 13.1996C20.2203 17.2424 16.9702 20.5171 12.9627 20.5171C8.95308 20.5171 5.70517 17.2403 5.70517 13.1996C5.70517 9.15685 8.9552 5.8821 12.9627 5.8821Z" fill="url(#paint0_linear_4_31)"/>
<defs>
<linearGradient id="paint0_linear_4_31" x1="1.68744e-07" y1="13.2653" x2="26" y2="13.2653" gradientUnits="userSpaceOnUse">
<stop stop-color="#BE6EFF"/>
<stop offset="1" stop-color="#46AAFF"/>
</linearGradient>
</defs>
</svg>
