<svg width="14" height="14" viewBox="0 0 14 14" fill="none" xmlns="http://www.w3.org/2000/svg">
<path d="M6.99999 3.35887C5.02418 3.35887 3.38708 4.96774 3.38708 6.97177C3.38708 8.97581 4.99596 10.5847 6.99999 10.5847C9.00402 10.5847 10.6129 8.94758 10.6129 6.97177C10.6129 4.99597 8.97579 3.35887 6.99999 3.35887ZM6.99999 9.28629C5.72983 9.28629 4.68547 8.24194 4.68547 6.97177C4.68547 5.70161 5.72983 4.65726 6.99999 4.65726C8.27015 4.65726 9.3145 5.70161 9.3145 6.97177C9.3145 8.24194 8.27015 9.28629 6.99999 9.28629Z" fill="#050708"/>
<path d="M10.754 4.09289C11.2061 4.09289 11.5726 3.72642 11.5726 3.27434C11.5726 2.82227 11.2061 2.4558 10.754 2.4558C10.302 2.4558 9.93549 2.82227 9.93549 3.27434C9.93549 3.72642 10.302 4.09289 10.754 4.09289Z" fill="#050708"/>
<path d="M12.871 1.15726C12.1371 0.395161 11.0927 0 9.90726 0H4.09274C1.6371 0 0 1.6371 0 4.09274V9.87903C0 11.0927 0.395161 12.1371 1.18548 12.8992C1.94758 13.6331 2.96371 14 4.12097 14H9.87903C11.0927 14 12.1089 13.6048 12.8427 12.8992C13.6048 12.1653 14 11.121 14 9.90726V4.09274C14 2.90726 13.6048 1.89113 12.871 1.15726ZM12.7581 9.90726C12.7581 10.7823 12.4476 11.4879 11.9395 11.9677C11.4315 12.4476 10.7258 12.7016 9.87903 12.7016H4.12097C3.27419 12.7016 2.56855 12.4476 2.06048 11.9677C1.55242 11.4597 1.29839 10.754 1.29839 9.87903V4.09274C1.29839 3.24597 1.55242 2.54032 2.06048 2.03226C2.54032 1.55242 3.27419 1.29839 4.12097 1.29839H9.93548C10.7823 1.29839 11.4879 1.55242 11.996 2.06048C12.4758 2.56855 12.7581 3.27419 12.7581 4.09274V9.90726Z" fill="#050708"/>
</svg>
