<svg width="16" height="13" viewBox="0 0 16 13" fill="none" xmlns="http://www.w3.org/2000/svg">
<path d="M15.6 1.53887C15.0265 1.80027 14.4093 1.97659 13.7617 2.0555C14.4229 1.6496 14.9299 1.00664 15.169 0.239646C14.5506 0.616001 13.8659 0.889094 13.1366 1.03652C12.553 0.398761 11.7211 0 10.8006 0C9.03326 0 7.60034 1.46938 7.60034 3.28199C7.60034 3.53884 7.62852 3.7892 7.68331 4.02982C5.0233 3.89279 2.66476 2.58643 1.08617 0.600739C0.810669 1.08523 0.652969 1.64895 0.652969 2.25099C0.652969 3.38947 1.2179 4.39417 2.07671 4.98256C1.5523 4.96535 1.05862 4.81761 0.627002 4.57179C0.626685 4.58543 0.626685 4.59939 0.626685 4.61335C0.626685 6.2032 1.72996 7.52938 3.19423 7.83137C2.92569 7.90605 2.64291 7.94632 2.35094 7.94632C2.14447 7.94632 1.94402 7.92586 1.74864 7.88722C2.15619 9.19099 3.33799 10.1402 4.7383 10.1665C3.64295 11.0468 2.26322 11.5715 0.763486 11.5715C0.505402 11.5715 0.250484 11.556 0 11.5254C1.41677 12.4571 3.09891 13 4.90613 13C10.7933 13 14.0122 7.99925 14.0122 3.66224C14.0122 3.52001 14.0094 3.3781 14.0034 3.23717C14.6285 2.77542 15.1712 2.19708 15.6 1.53887Z" fill="#050708"/>
</svg>
