<svg width="17" height="13" viewBox="0 0 17 13" fill="none" xmlns="http://www.w3.org/2000/svg">
<path d="M16.8057 2.90588C16.8057 2.75294 16.5845 1.52941 16.0686 0.994118C15.4052 0.229412 14.6681 0.152941 14.2995 0.152941H14.2258C11.9409 2.90573e-08 8.55025 0 8.47654 0C8.47654 0 5.01221 2.90573e-08 2.72723 0.152941H2.65352C2.28498 0.152941 1.54789 0.229412 0.884508 0.994118C0.368545 1.60588 0.147418 2.82941 0.147418 2.98235C0.147418 3.05882 0 4.43529 0 5.88824V7.18824C0 8.64118 0.147418 10.0176 0.147418 10.0941C0.147418 10.2471 0.368545 11.4706 0.884508 12.0059C1.47418 12.6941 2.21127 12.7706 2.65352 12.8471C2.72723 12.8471 2.80094 12.8471 2.87465 12.8471C4.20141 13 8.25541 13 8.40283 13C8.40283 13 11.8672 13 14.1521 12.8471H14.2258C14.5944 12.7706 15.3315 12.6941 15.9949 12.0059C16.5108 11.3941 16.7319 10.1706 16.7319 10.0176C16.7319 9.94118 16.8794 8.56471 16.8794 7.11176V5.81177C16.9531 4.43529 16.8057 2.98235 16.8057 2.90588ZM11.3512 6.65294L6.92865 9.1C6.85494 9.1 6.85494 9.17647 6.78123 9.17647C6.70752 9.17647 6.63381 9.17647 6.63381 9.1C6.5601 9.02353 6.48639 8.94706 6.48639 8.79412V3.82353C6.48639 3.67059 6.5601 3.59412 6.63381 3.51765C6.70752 3.44118 6.85494 3.44118 7.00236 3.51765L11.4249 5.96471C11.5723 6.04118 11.646 6.11765 11.646 6.27059C11.646 6.42353 11.4986 6.57647 11.3512 6.65294Z" fill="#050708"/>
</svg>
