<svg width="16" height="12" viewBox="0 0 16 12" fill="none" xmlns="http://www.w3.org/2000/svg">
<path d="M15.5129 2.68235C15.5129 2.54118 15.3088 1.41176 14.8325 0.917647C14.2202 0.211765 13.5398 0.141177 13.1996 0.141177H13.1315C11.0223 2.68221e-08 7.89253 0 7.82449 0C7.82449 0 4.62666 2.68221e-08 2.51745 0.141177H2.44941C2.10921 0.141177 1.42882 0.211765 0.816469 0.917647C0.340195 1.48235 0.136078 2.61176 0.136078 2.75294C0.136078 2.82353 0 4.09412 0 5.43529V6.63529C0 7.97647 0.136078 9.24706 0.136078 9.31765C0.136078 9.45883 0.340195 10.5882 0.816469 11.0824C1.36078 11.7176 2.04117 11.7882 2.44941 11.8588C2.51745 11.8588 2.58549 11.8588 2.65352 11.8588C3.87823 12 7.62038 12 7.75646 12C7.75646 12 10.9543 12 13.0635 11.8588H13.1315C13.4717 11.7882 14.1521 11.7176 14.7645 11.0824C15.2408 10.5176 15.4449 9.38824 15.4449 9.24706C15.4449 9.17647 15.5809 7.90588 15.5809 6.56471V5.36471C15.649 4.09412 15.5129 2.75294 15.5129 2.68235ZM10.478 6.14118L6.39567 8.4C6.32763 8.4 6.32763 8.47059 6.2596 8.47059C6.19156 8.47059 6.12352 8.47059 6.12352 8.4C6.05548 8.32941 5.98744 8.25882 5.98744 8.11765V3.52941C5.98744 3.38824 6.05548 3.31765 6.12352 3.24706C6.19156 3.17647 6.32763 3.17647 6.46371 3.24706L10.5461 5.50588C10.6821 5.57647 10.7502 5.64706 10.7502 5.78824C10.7502 5.92941 10.6141 6.07059 10.478 6.14118Z" fill="#0E0E0E"/>
</svg>
