<svg xmlns="http://www.w3.org/2000/svg" width="26" height="18" viewBox="0 0 26 18">
  <path id="Icon_zocial-cart" data-name="Icon zocial-cart" d="M-2.07,5.715a.991.991,0,0,1,.3-.743A1.054,1.054,0,0,1-1,4.68H4.453a1.086,1.086,0,0,1,.662.214,1,1,0,0,1,.383.574l.557,2.205H21.7l.163-.473a.957.957,0,0,1,1-.72.735.735,0,0,1,.3.045,1,1,0,0,1,.557.36.963.963,0,0,1,.209.608,1.221,1.221,0,0,1-.046.293l-2.739,8.843a.967.967,0,0,1-.371.54,1.041,1.041,0,0,1-.627.2H7.169a1.086,1.086,0,0,1-1.045-.788L3.618,6.728H-1a1.068,1.068,0,0,1-.754-.293A.946.946,0,0,1-2.07,5.715ZM6.566,9.72,8.005,15.3H19.357l.046-.2,1.672-5.378H6.566Zm.975,10.89a1.945,1.945,0,0,1,.638-1.463A2.131,2.131,0,0,1,9.7,18.541a2.091,2.091,0,0,1,1.509.608,2.02,2.02,0,0,1,0,2.925A2.09,2.09,0,0,1,9.7,22.68a2.13,2.13,0,0,1-1.521-.607A1.948,1.948,0,0,1,7.541,20.611ZM9.05,11.475H12.9v2.069H9.513Zm5.687,2.07.023-2.069h3.761l-.557,2.069Zm.859,7.065a1.946,1.946,0,0,1,.639-1.463,2.129,2.129,0,0,1,1.521-.608,2.09,2.09,0,0,1,1.509.608,2.021,2.021,0,0,1,0,2.925,2.09,2.09,0,0,1-1.509.607,2.129,2.129,0,0,1-1.521-.607A1.946,1.946,0,0,1,15.6,20.611Z" transform="translate(2.07 -4.68)" fill="#FFB8EC"/>
</svg>
