<svg xmlns="http://www.w3.org/2000/svg" xmlns:xlink="http://www.w3.org/1999/xlink" width="618" height="618" viewBox="0 0 618 618">
  <defs>
    <filter id="Ellipse_2" x="0" y="0" width="618" height="618" filterUnits="userSpaceOnUse">
      <feOffset dy="3" input="SourceAlpha"/>
      <feGaussianBlur stdDeviation="3" result="blur"/>
      <feFlood flood-opacity="0.161"/>
      <feComposite operator="in" in2="blur"/>
      <feComposite in="SourceGraphic"/>
    </filter>
    <filter id="Ellipse_4" x="50" y="50" width="518" height="518" filterUnits="userSpaceOnUse">
      <feOffset dy="3" input="SourceAlpha"/>
      <feGaussianBlur stdDeviation="3" result="blur-2"/>
      <feFlood flood-opacity="0.161"/>
      <feComposite operator="in" in2="blur-2"/>
      <feComposite in="SourceGraphic"/>
    </filter>
    <filter id="Ellipse_5" x="100" y="100" width="418" height="418" filterUnits="userSpaceOnUse">
      <feOffset dy="3" input="SourceAlpha"/>
      <feGaussianBlur stdDeviation="3" result="blur-3"/>
      <feFlood flood-opacity="0.161"/>
      <feComposite operator="in" in2="blur-3"/>
      <feComposite in="SourceGraphic"/>
    </filter>
    <filter id="Ellipse_7" x="200" y="200" width="218" height="218" filterUnits="userSpaceOnUse">
      <feOffset dy="3" input="SourceAlpha"/>
      <feGaussianBlur stdDeviation="3" result="blur-4"/>
      <feFlood flood-opacity="0.161"/>
      <feComposite operator="in" in2="blur-4"/>
      <feComposite in="SourceGraphic"/>
    </filter>
    <filter id="Ellipse_6" x="150" y="150" width="318" height="318" filterUnits="userSpaceOnUse">
      <feOffset dy="3" input="SourceAlpha"/>
      <feGaussianBlur stdDeviation="3" result="blur-5"/>
      <feFlood flood-opacity="0.161"/>
      <feComposite operator="in" in2="blur-5"/>
      <feComposite in="SourceGraphic"/>
    </filter>
  </defs>
  <g id="Group_170" data-name="Group 170" transform="translate(-1473 -201)">
    <g transform="matrix(1, 0, 0, 1, 1473, 201)" filter="url(#Ellipse_2)">
      <circle id="Ellipse_2-2" data-name="Ellipse 2" cx="300" cy="300" r="300" transform="translate(9 6)" fill="#ffb8ec" opacity="0.3"/>
    </g>
    <g transform="matrix(1, 0, 0, 1, 1473, 201)" filter="url(#Ellipse_4)">
      <circle id="Ellipse_4-2" data-name="Ellipse 4" cx="250" cy="250" r="250" transform="translate(59 56)" fill="#ffb8ec" opacity="0.3"/>
    </g>
    <g transform="matrix(1, 0, 0, 1, 1473, 201)" filter="url(#Ellipse_5)">
      <circle id="Ellipse_5-2" data-name="Ellipse 5" cx="200" cy="200" r="200" transform="translate(109 106)" fill="#ffb8ec" opacity="0.3"/>
    </g>
    <g transform="matrix(1, 0, 0, 1, 1473, 201)" filter="url(#Ellipse_7)">
      <circle id="Ellipse_7-2" data-name="Ellipse 7" cx="100" cy="100" r="100" transform="translate(209 206)" fill="#ffb8ec" opacity="0.3"/>
    </g>
    <g transform="matrix(1, 0, 0, 1, 1473, 201)" filter="url(#Ellipse_6)">
      <circle id="Ellipse_6-2" data-name="Ellipse 6" cx="150" cy="150" r="150" transform="translate(159 156)" fill="#ffb8ec" opacity="0.3"/>
    </g>
  </g>
</svg>
