<svg xmlns="http://www.w3.org/2000/svg" width="24" height="24" viewBox="0 0 24 24">
  <g id="Icon_feather-instagram" data-name="Icon feather-instagram" transform="translate(-2 -2)">
    <path id="Path_18" data-name="Path 18" d="M8.5,3h11A5.5,5.5,0,0,1,25,8.5v11A5.5,5.5,0,0,1,19.5,25H8.5A5.5,5.5,0,0,1,3,19.5V8.5A5.5,5.5,0,0,1,8.5,3Z" transform="translate(0 0)" fill="none" stroke="#000" stroke-linecap="round" stroke-linejoin="round" stroke-width="2"/>
    <path id="Path_19" data-name="Path 19" d="M21.161,15.837a4.573,4.573,0,1,1-3.853-3.853,4.573,4.573,0,0,1,3.853,3.853Z" transform="translate(-2.591 -2.554)" fill="none" stroke="#000" stroke-linecap="round" stroke-linejoin="round" stroke-width="2"/>
    <path id="Path_20" data-name="Path 20" d="M26.25,9.75h0" transform="translate(-6.2 -1.8)" fill="none" stroke="#000" stroke-linecap="round" stroke-linejoin="round" stroke-width="2"/>
  </g>
</svg>
