<svg id="_100-percent-organic-icon" data-name="100-percent-organic-icon" xmlns="http://www.w3.org/2000/svg" width="120" height="120" viewBox="0 0 120 120">
  <path id="Path_1" data-name="Path 1" d="M60,0A60.018,60.018,0,1,1,17.58,17.578,59.785,59.785,0,0,1,60,0Zm0,7A53,53,0,1,1,22.531,22.52,52.81,52.81,0,0,1,60,7ZM60,9.18A50.82,50.82,0,1,1,9.18,60,50.824,50.824,0,0,1,60,9.18ZM98.944,21.064A55.071,55.071,0,1,0,115.068,60,54.92,54.92,0,0,0,98.944,21.064Z" fill="#1b9c28"/>
  <path id="Path_2" data-name="Path 2" d="M60.005,9.4A50.6,50.6,0,1,1,9.4,60,50.6,50.6,0,0,1,60.005,9.4Z" fill="#fff" fill-rule="evenodd"/>
  <path id="Path_3" data-name="Path 3" d="M38.45,40.19V31.5a16.459,16.459,0,0,1-1.59,1.05,3.535,3.535,0,0,1-1.57.57,1.337,1.337,0,0,1-.59-.13,1.549,1.549,0,0,1-.5-.36,1.686,1.686,0,0,1-.34-.51,1.567,1.567,0,0,1-.12-.6,1.623,1.623,0,0,1,.12-.64,1.283,1.283,0,0,1,.39-.5l.03-.02q.2-.135.48-.3l.75-.38a8.371,8.371,0,0,0,1.93-1.19,7.168,7.168,0,0,0,.68-.67,8.434,8.434,0,0,0,.6-.74c.28-.36.51-.7.8-1.05a.944.944,0,0,1,.46-.26,2.09,2.09,0,0,1,.53-.06,1.48,1.48,0,0,1,1.23.6,1.709,1.709,0,0,1,.33.66,2.8,2.8,0,0,1,.1.79V39.79a3.255,3.255,0,0,1-.44,1.83,1.627,1.627,0,0,1-1.44.72,1.951,1.951,0,0,1-.74-.14,1.737,1.737,0,0,1-.61-.43l-.02-.02a1.736,1.736,0,0,1-.36-.67,3.616,3.616,0,0,1-.11-.89Zm18.81-6.12c0,.57-.02,1.12-.05,1.63a13.871,13.871,0,0,1-.16,1.4,7.475,7.475,0,0,1-.83,2.39,5.96,5.96,0,0,1-.89,1.19,5.572,5.572,0,0,1-1.12.88,5.2,5.2,0,0,1-1.31.55,5.661,5.661,0,0,1-1.43.18,5.168,5.168,0,0,1-1.64-.25,5.082,5.082,0,0,1-1.47-.74,5.55,5.55,0,0,1-1.2-1.17,6.219,6.219,0,0,1-.85-1.52l-.01-.02c-.11-.3-.21-.63-.3-.96s-.15-.69-.2-1.05-.09-.74-.12-1.13-.04-.81-.04-1.22c0-.52.02-1.04.04-1.53v-.01c.03-.48.07-.94.13-1.37s.13-.84.22-1.23a6.628,6.628,0,0,1,.33-1.06l.02-.03a6.552,6.552,0,0,1,.8-1.4,4.766,4.766,0,0,1,1.14-1.06,4.823,4.823,0,0,1,1.42-.65,6.189,6.189,0,0,1,1.64-.22,5.8,5.8,0,0,1,1.11.1,4.976,4.976,0,0,1,1.02.29l.03.01a5.657,5.657,0,0,1,.88.46,5.461,5.461,0,0,1,.79.65,5.981,5.981,0,0,1,.67.82,7.587,7.587,0,0,1,.55.98l.02.04a9.023,9.023,0,0,1,.62,2.17v.02a20.351,20.351,0,0,1,.19,2.86Zm-3.74-.21q0-.96-.06-1.71a11.253,11.253,0,0,0-.17-1.35v-.01a5.475,5.475,0,0,0-.28-.98,2.315,2.315,0,0,0-.4-.66,1.2,1.2,0,0,0-.49-.35l-.02-.01a1.96,1.96,0,0,0-.67-.11,1.5,1.5,0,0,0-.92.27l-.02.02a1.818,1.818,0,0,0-.58.83,7.279,7.279,0,0,0-.38,1.67,19.658,19.658,0,0,0-.13,2.48c0,.66.02,1.25.05,1.77a11.74,11.74,0,0,0,.17,1.39,5.155,5.155,0,0,0,.29,1.02,2.508,2.508,0,0,0,.4.69,1.355,1.355,0,0,0,.49.37,1.687,1.687,0,0,0,.66.13,1.635,1.635,0,0,0,.69-.13,1.278,1.278,0,0,0,.49-.38,2.533,2.533,0,0,0,.4-.71,5.725,5.725,0,0,0,.28-1.02,12.563,12.563,0,0,0,.16-1.41c.02-.53.04-1.14.04-1.81Zm16.42.21c0,.57-.02,1.12-.05,1.63a13.869,13.869,0,0,1-.16,1.4,7.475,7.475,0,0,1-.83,2.39,5.96,5.96,0,0,1-.89,1.19,5.571,5.571,0,0,1-1.12.88,5.2,5.2,0,0,1-1.31.55,5.661,5.661,0,0,1-1.43.18,5.168,5.168,0,0,1-1.64-.25,5.082,5.082,0,0,1-1.47-.74,5.55,5.55,0,0,1-1.2-1.17,6.219,6.219,0,0,1-.85-1.52l-.01-.02c-.11-.3-.21-.63-.3-.96s-.15-.69-.2-1.05-.09-.74-.12-1.13-.04-.81-.04-1.22c0-.52.02-1.04.04-1.53v-.01c.03-.48.07-.94.13-1.37s.13-.84.22-1.23a6.628,6.628,0,0,1,.33-1.06l.02-.03a6.552,6.552,0,0,1,.8-1.4A4.766,4.766,0,0,1,61,26.54a4.823,4.823,0,0,1,1.42-.65,6.189,6.189,0,0,1,1.64-.22,5.8,5.8,0,0,1,1.11.1,4.976,4.976,0,0,1,1.02.29l.03.01a5.657,5.657,0,0,1,.88.46,4.97,4.97,0,0,1,.79.65,5.981,5.981,0,0,1,.67.82,7.588,7.588,0,0,1,.55.98l.01.04a8.589,8.589,0,0,1,.62,2.17v.02a18.861,18.861,0,0,1,.2,2.86Zm-3.74-.21q0-.96-.06-1.71a11.252,11.252,0,0,0-.17-1.35v-.01a5.475,5.475,0,0,0-.28-.98,2.556,2.556,0,0,0-.39-.66,1.2,1.2,0,0,0-.49-.35l-.02-.01a1.96,1.96,0,0,0-.67-.11,1.5,1.5,0,0,0-.92.27l-.02.02a1.818,1.818,0,0,0-.58.83,7.279,7.279,0,0,0-.38,1.67,19.658,19.658,0,0,0-.13,2.48c0,.66.02,1.25.05,1.77a11.74,11.74,0,0,0,.17,1.39,5.155,5.155,0,0,0,.29,1.02,2.508,2.508,0,0,0,.4.69,1.355,1.355,0,0,0,.49.37,1.687,1.687,0,0,0,.66.13,1.635,1.635,0,0,0,.69-.13,1.278,1.278,0,0,0,.49-.38,2.533,2.533,0,0,0,.4-.71,5.725,5.725,0,0,0,.28-1.02,12.565,12.565,0,0,0,.16-1.41c.01-.53.03-1.14.03-1.81Zm12.19-3.68a6.581,6.581,0,0,1-.24,1.87,3.563,3.563,0,0,1-.76,1.4l-.02.02a3.178,3.178,0,0,1-1.19.82,4.283,4.283,0,0,1-2.53.16,3.991,3.991,0,0,1-.91-.35,3.09,3.09,0,0,1-.78-.62,3.85,3.85,0,0,1-.57-.87l-.01-.03a4.873,4.873,0,0,1-.34-1.06,6.268,6.268,0,0,1-.12-1.26,8.889,8.889,0,0,1,.09-1.31,6.473,6.473,0,0,1,.26-1.11l.02-.04a3.1,3.1,0,0,1,.48-.88,2.984,2.984,0,0,1,.74-.68,3.2,3.2,0,0,1,.96-.41h.02a4.493,4.493,0,0,1,1.13-.13,4.719,4.719,0,0,1,.85.07,4.346,4.346,0,0,1,.75.21,3.362,3.362,0,0,1,.67.37,3.491,3.491,0,0,1,.56.53l.02.03a3.372,3.372,0,0,1,.4.63,4.114,4.114,0,0,1,.3.77l.01.02a5.474,5.474,0,0,1,.16.86c.03.3.05.64.05.99Zm-2.83-.11a7.2,7.2,0,0,0-.07-1.12v-.01a2.272,2.272,0,0,0-.18-.68l-.01-.01a.689.689,0,0,0-.23-.27l-.01-.01a.77.77,0,0,0-.4-.08.853.853,0,0,0-.3.05.533.533,0,0,0-.2.13.769.769,0,0,0-.16.25l-.01.02a1.8,1.8,0,0,0-.12.39c-.03.18-.06.38-.08.61l-.03.79.03.83c.02.23.04.44.07.61a1.6,1.6,0,0,0,.13.42.719.719,0,0,0,.16.24l.02.02a.419.419,0,0,0,.18.11.914.914,0,0,0,.31.05.726.726,0,0,0,.42-.1.618.618,0,0,0,.24-.3l.01-.01a3.289,3.289,0,0,0,.17-.73,10.542,10.542,0,0,0,.06-1.2Zm13.58,7.7a6.581,6.581,0,0,1-.24,1.87,3.563,3.563,0,0,1-.76,1.4l-.02.02a3.178,3.178,0,0,1-1.19.82,4.128,4.128,0,0,1-1.53.28,4.17,4.17,0,0,1-1.01-.12l-.02-.01a4.019,4.019,0,0,1-.89-.35,3.09,3.09,0,0,1-.78-.62,3.6,3.6,0,0,1-.58-.86l-.01-.03a4.308,4.308,0,0,1-.34-1.05,6.289,6.289,0,0,1-.11-1.26,7.777,7.777,0,0,1,.21-1.9,3.988,3.988,0,0,1,.66-1.44,2.8,2.8,0,0,1,1.19-.92,4.365,4.365,0,0,1,1.64-.29,4.609,4.609,0,0,1,.84.07h.02a3.514,3.514,0,0,1,.74.21,4.224,4.224,0,0,1,.66.36,3.852,3.852,0,0,1,.56.51,3.708,3.708,0,0,1,.44.65l.01.02a4.174,4.174,0,0,1,.29.75l.01.02a5.7,5.7,0,0,1,.16.86,8.335,8.335,0,0,1,.05,1.01Zm-2.83-.1a7.143,7.143,0,0,0-.07-1.11,2.439,2.439,0,0,0-.18-.69.61.61,0,0,0-.24-.28l-.01-.01a.77.77,0,0,0-.4-.08.933.933,0,0,0-.32.05.516.516,0,0,0-.19.12.839.839,0,0,0-.16.24,1.8,1.8,0,0,0-.13.41v.02c-.03.16-.06.36-.08.58s-.03.5-.03.79a7.525,7.525,0,0,0,.07,1.15v.01a2.472,2.472,0,0,0,.19.71.633.633,0,0,0,.25.3.868.868,0,0,0,.42.1.634.634,0,0,0,.65-.4,2.965,2.965,0,0,0,.18-.74c.03-.32.05-.72.05-1.17Zm-.98-9.93L76.58,41.85a2,2,0,0,1-.46.55,1.074,1.074,0,0,1-.66.24,1.087,1.087,0,0,1-.39-.08,1.128,1.128,0,0,1-.35-.2.937.937,0,0,1-.3-.36l-.01-.02a1.129,1.129,0,0,1-.1-.44,1.235,1.235,0,0,1,.08-.4,1.708,1.708,0,0,1,.2-.37L83.6,26.2l.22-.29a.959.959,0,0,1,.37-.26l.04-.01a1.355,1.355,0,0,1,.41-.07,1.251,1.251,0,0,1,.43.07l.02.01a1.152,1.152,0,0,1,.35.22l.02.02a1.015,1.015,0,0,1,.23.35,1.273,1.273,0,0,1,.08.44,1.316,1.316,0,0,1-.14.5,2.872,2.872,0,0,1-.3.56Z" transform="translate(-1.435 -0.696)" fill="#1b9c28"/>
  <path id="Path_4" data-name="Path 4" d="M63.06,75.37c.6.16,1.31.26,1.93.36,15.68,2.52,26.88-5.15,24.84-28.35-10.81,3.75-25.45,3-28.39,16.63C58.5,50.38,43.86,51.12,33.05,47.38,31,70.66,42.29,78.31,58.06,75.7c.56-.09,1.21-.19,1.76-.33a2.165,2.165,0,0,0,3.24,0Zm-5.43-4.3c-4.31-9.28-15.37-12.45-20.86-18.79,5.95,11.58,10.81,12.15,20.86,18.79Zm7.62,0c4.31-9.28,15.37-12.45,20.86-18.79C80.16,63.86,75.3,64.43,65.25,71.07Z" transform="translate(-1.435 -1.451)" fill="#1b9c28" fill-rule="evenodd"/>
  <path id="Path_5" data-name="Path 5" d="M65.25,71.07c4.31-9.28,15.37-12.45,20.86-18.79C80.16,63.86,75.3,64.43,65.25,71.07Z" transform="translate(-1.836 -1.446)" fill="#fff" fill-rule="evenodd"/>
  <path id="Path_6" data-name="Path 6" d="M57.63,71.07c-4.31-9.28-15.37-12.45-20.86-18.79,5.95,11.58,10.81,12.15,20.86,18.79Z" transform="translate(-1.035 -1.446)" fill="#fff" fill-rule="evenodd"/>
  <path id="Path_7" data-name="Path 7" d="M36.44,79.94a7.6,7.6,0,0,1,1.76.19,5.771,5.771,0,0,1,1.5.58l.01.01a5.216,5.216,0,0,1,1.19.93,4.931,4.931,0,0,1,.87,1.27,6.347,6.347,0,0,1,.52,1.54,9.044,9.044,0,0,1-.21,4.34,5.892,5.892,0,0,1-.48,1.08,5.341,5.341,0,0,1-1.54,1.69,5.344,5.344,0,0,1-1.03.55h-.01a5.635,5.635,0,0,1-1.19.33,8.292,8.292,0,0,1-1.35.11,7.37,7.37,0,0,1-1.35-.12,5.844,5.844,0,0,1-1.21-.35,4.921,4.921,0,0,1-1.04-.56,4.775,4.775,0,0,1-.86-.75l-.01-.01a5.5,5.5,0,0,1-.66-.92,6.415,6.415,0,0,1-.48-1.1,8.038,8.038,0,0,1-.29-1.22,9.3,9.3,0,0,1-.1-1.32,8.367,8.367,0,0,1,.1-1.34,7.9,7.9,0,0,1,.3-1.23l.01-.01a5.818,5.818,0,0,1,.49-1.07,5.61,5.61,0,0,1,.68-.92,4.618,4.618,0,0,1,.86-.73,5.489,5.489,0,0,1,1.02-.54h.01a5.989,5.989,0,0,1,1.16-.32,7.236,7.236,0,0,1,1.33-.11Zm3.2,6.28a6.147,6.147,0,0,0-.1-1.17,5.069,5.069,0,0,0-.3-1v-.01a3.4,3.4,0,0,0-.48-.78,2.832,2.832,0,0,0-.64-.56,2.719,2.719,0,0,0-.78-.34,3.266,3.266,0,0,0-.9-.11,3.415,3.415,0,0,0-.65.06,3,3,0,0,0-.6.19h-.01a2.676,2.676,0,0,0-.97.72,2.782,2.782,0,0,0-.37.55,4.089,4.089,0,0,0-.29.7,5.17,5.17,0,0,0-.18.82,7.16,7.16,0,0,0,0,1.85,5.3,5.3,0,0,0,.18.83,4.2,4.2,0,0,0,.29.71,3.326,3.326,0,0,0,.38.57,2.789,2.789,0,0,0,.47.44,2.539,2.539,0,0,0,.53.31l.01.01a2.794,2.794,0,0,0,.58.18,3.34,3.34,0,0,0,.65.06,3.2,3.2,0,0,0,.83-.11,3.149,3.149,0,0,0,.76-.32h.01a2.66,2.66,0,0,0,.63-.54,3.837,3.837,0,0,0,.51-.79v-.01a4.27,4.27,0,0,0,.32-1.01,5.36,5.36,0,0,0,.12-1.25Zm7.33,2.97v1.84a1.581,1.581,0,0,1-.37,1.14,1.352,1.352,0,0,1-.42.3,1.269,1.269,0,0,1-.52.1,1.222,1.222,0,0,1-.51-.1,1.245,1.245,0,0,1-.42-.3,1.265,1.265,0,0,1-.27-.5,2.105,2.105,0,0,1-.09-.64V84.9a2.031,2.031,0,0,1,.31-1.23,1.13,1.13,0,0,1,.97-.46,1.541,1.541,0,0,1,.55.1h.01a.89.89,0,0,1,.39.33v.01a1.575,1.575,0,0,1,.21.49l.02.07.11-.14a2.778,2.778,0,0,1,.44-.46,1.722,1.722,0,0,1,.55-.3,2.371,2.371,0,0,1,.68-.1,2.979,2.979,0,0,1,.73.09,2.835,2.835,0,0,1,.71.28l.01.01a1.589,1.589,0,0,1,.55.46l.01.01a1.056,1.056,0,0,1,.19.62,1.33,1.33,0,0,1-.08.45,1.04,1.04,0,0,1-.26.37l-.01.01a1.2,1.2,0,0,1-.34.23.909.909,0,0,1-.39.08,1.091,1.091,0,0,1-.26-.04,3.082,3.082,0,0,1-.39-.12h-.01a3.888,3.888,0,0,0-.4-.1,2.159,2.159,0,0,0-.35-.03,1.457,1.457,0,0,0-.38.05,1,1,0,0,0-.29.15h-.01a1.122,1.122,0,0,0-.22.26,1.763,1.763,0,0,0-.18.39v.01a3.154,3.154,0,0,0-.13.51,5.774,5.774,0,0,0-.09.62h0c-.02.23-.04.48-.05.76v.91Zm13.15-4.16v6.4a8.735,8.735,0,0,1-.06,1.05,5.971,5.971,0,0,1-.18.9v.01a3.472,3.472,0,0,1-.32.76l-.01.01a2.893,2.893,0,0,1-.47.62l-.01.01a2.725,2.725,0,0,1-.63.47,3.622,3.622,0,0,1-.8.33,6.13,6.13,0,0,1-.97.2,10.628,10.628,0,0,1-1.17.06,7.832,7.832,0,0,1-1.11-.08,5.731,5.731,0,0,1-.99-.25,5.319,5.319,0,0,1-.83-.38,2.925,2.925,0,0,1-.63-.49,2.046,2.046,0,0,1-.4-.57,1.468,1.468,0,0,1-.14-.61,1.231,1.231,0,0,1,.08-.44.977.977,0,0,1,.25-.36h0a1.1,1.1,0,0,1,.37-.23,1.217,1.217,0,0,1,.43-.08,1.172,1.172,0,0,1,.55.13,1.445,1.445,0,0,1,.46.37l.37.44c.06.06.11.12.18.18a1.559,1.559,0,0,0,.2.16h.01a2.182,2.182,0,0,0,.22.12h.01a1.6,1.6,0,0,0,.26.08h.01a2.869,2.869,0,0,0,.31.05c.11.01.24.02.38.02a3.8,3.8,0,0,0,.72-.06,2.043,2.043,0,0,0,.51-.16h.01a1.47,1.47,0,0,0,.34-.24,1.016,1.016,0,0,0,.22-.32,1.984,1.984,0,0,0,.14-.41,3.107,3.107,0,0,0,.07-.44c.01-.17.02-.38.03-.64l.01-.34c-.07.07-.13.14-.2.2a3.693,3.693,0,0,1-.66.48h-.01a2.849,2.849,0,0,1-.77.29,3.706,3.706,0,0,1-.9.1,3.829,3.829,0,0,1-1.09-.15,3.316,3.316,0,0,1-.95-.45,3.507,3.507,0,0,1-.77-.72,4.432,4.432,0,0,1-.57-.95,5.621,5.621,0,0,1-.35-1.14,6.6,6.6,0,0,1-.11-1.29,5.793,5.793,0,0,1,.28-1.85,4.617,4.617,0,0,1,.35-.78,3.3,3.3,0,0,1,.47-.64,3.463,3.463,0,0,1,.57-.51,3.21,3.21,0,0,1,.65-.37h.01a3.531,3.531,0,0,1,.72-.22,4,4,0,0,1,.79-.07,3.932,3.932,0,0,1,.92.1,2.928,2.928,0,0,1,.8.29,3.548,3.548,0,0,1,.7.49l.01.01a3.5,3.5,0,0,1,.28.27,1.6,1.6,0,0,1,.07-.33,1.224,1.224,0,0,1,.25-.45,1.2,1.2,0,0,1,.39-.29,1.287,1.287,0,0,1,.48-.1,1.32,1.32,0,0,1,.62.13.883.883,0,0,1,.41.4,2.123,2.123,0,0,1,.18.57c0,.2.01.44.01.71Zm-6.37,2.79a4.127,4.127,0,0,0,.14,1.12,2.058,2.058,0,0,0,.4.78,1.726,1.726,0,0,0,.6.46,1.875,1.875,0,0,0,.76.15,1.594,1.594,0,0,0,.48-.07,1.692,1.692,0,0,0,.46-.2,1.8,1.8,0,0,0,.4-.33,1.912,1.912,0,0,0,.32-.48l.01-.01a2.65,2.65,0,0,0,.21-.6,3.383,3.383,0,0,0,.07-.74,4.336,4.336,0,0,0-.14-1.14,2.39,2.39,0,0,0-.41-.83l-.01-.01a1.829,1.829,0,0,0-.6-.49,1.8,1.8,0,0,0-.79-.17,1.7,1.7,0,0,0-.76.16,1.786,1.786,0,0,0-.59.48,2.389,2.389,0,0,0-.39.8,3.261,3.261,0,0,0-.16,1.12Zm13.92,3.6a5.744,5.744,0,0,1-.63.42,6.521,6.521,0,0,1-.79.4h-.01a3.7,3.7,0,0,1-.82.24,5.431,5.431,0,0,1-.92.08,3.8,3.8,0,0,1-.84-.09,3.027,3.027,0,0,1-1.35-.69l-.01-.01a2.406,2.406,0,0,1-.45-.55,2.326,2.326,0,0,1-.28-.65,2.743,2.743,0,0,1-.09-.7,2.49,2.49,0,0,1,.16-.91,2.284,2.284,0,0,1,.47-.77l.01-.01a2.831,2.831,0,0,1,.72-.57,3.666,3.666,0,0,1,.95-.34c.6-.13,1.21-.25,1.81-.38.24-.05.46-.1.65-.15.21-.05.42-.1.63-.16l.49-.14a3.5,3.5,0,0,0-.09-.55,1.178,1.178,0,0,0-.21-.45l-.01-.01a.785.785,0,0,0-.37-.23,2.557,2.557,0,0,0-.75-.09,4.684,4.684,0,0,0-.7.05,1.907,1.907,0,0,0-.46.15h-.01a1.67,1.67,0,0,0-.35.26,1.936,1.936,0,0,0-.3.38l-.25.38c-.08.11-.14.2-.19.26h0a.554.554,0,0,1-.3.17,1.509,1.509,0,0,1-.39.04,1.159,1.159,0,0,1-.78-.29l-.01-.01a.931.931,0,0,1-.24-.33l-.01-.01a1.109,1.109,0,0,1-.08-.41,1.771,1.771,0,0,1,.12-.64,2.428,2.428,0,0,1,.33-.61,2.459,2.459,0,0,1,.57-.54,3.755,3.755,0,0,1,.8-.42,4.724,4.724,0,0,1,1.02-.28,7.9,7.9,0,0,1,1.23-.09,8.879,8.879,0,0,1,1.33.09,4.533,4.533,0,0,1,1.03.27,2.4,2.4,0,0,1,.77.48l.01.01a2.26,2.26,0,0,1,.5.69,3.748,3.748,0,0,1,.27.91,6.59,6.59,0,0,1,.09,1.14c0,.84-.01,1.68-.02,2.52a4.329,4.329,0,0,0,.2,1.24c.07.23.12.41.16.56a1.709,1.709,0,0,1,.06.37,1.075,1.075,0,0,1-.1.42l-.01.01a1.1,1.1,0,0,1-.28.34,1.186,1.186,0,0,1-.4.24,1.173,1.173,0,0,1-.46.08.9.9,0,0,1-.42-.1,1.332,1.332,0,0,1-.38-.27,3.006,3.006,0,0,1-.36-.41,2.006,2.006,0,0,1-.26-.34Zm-.29-3.2-.35.1c-.24.06-.51.13-.81.19-.43.09-.85.19-1.28.29a1.476,1.476,0,0,0-.29.12,1.368,1.368,0,0,0-.29.2.667.667,0,0,0-.19.25.951.951,0,0,0-.06.35.921.921,0,0,0,.08.38.82.82,0,0,0,.24.32,1.07,1.07,0,0,0,.37.22,1.437,1.437,0,0,0,.49.08,2.2,2.2,0,0,0,.58-.07,2,2,0,0,0,.53-.2,2.12,2.12,0,0,0,.44-.3,1.392,1.392,0,0,0,.29-.36l.01-.01a1.858,1.858,0,0,0,.19-.59,5.194,5.194,0,0,0,.07-.95v-.02Zm7.19-3.86a3.766,3.766,0,0,1,.29-.28,3.548,3.548,0,0,1,.7-.49,3.38,3.38,0,0,1,.79-.29,4.263,4.263,0,0,1,.89-.09,3.516,3.516,0,0,1,.87.1,3.321,3.321,0,0,1,.78.3l.01.01a2.367,2.367,0,0,1,.63.49l.01.01a2.6,2.6,0,0,1,.46.66h0a2.436,2.436,0,0,1,.19.44,2.678,2.678,0,0,1,.11.49v.01c.02.16.04.34.05.55s.02.43.02.66v4.1a2.488,2.488,0,0,1-.08.64,1.42,1.42,0,0,1-.27.5,1.149,1.149,0,0,1-.42.31,1.269,1.269,0,0,1-.52.1,1.317,1.317,0,0,1-.53-.1,1.273,1.273,0,0,1-.43-.31l-.01-.01a1.311,1.311,0,0,1-.26-.48,2.039,2.039,0,0,1-.09-.63V87.38a6.053,6.053,0,0,0-.07-.92,2.482,2.482,0,0,0-.21-.65l-.01-.01a.858.858,0,0,0-.35-.33l-.02-.01a1.54,1.54,0,0,0-.65-.12,1.636,1.636,0,0,0-.5.08,1.8,1.8,0,0,0-.46.23,1.752,1.752,0,0,0-.64.86,2.784,2.784,0,0,0-.11.66c-.03.3-.04.67-.04,1.11v2.76a2.06,2.06,0,0,1-.09.64,1.227,1.227,0,0,1-.28.5,1.242,1.242,0,0,1-.43.3l-.02.01a1.348,1.348,0,0,1-.5.09,1.363,1.363,0,0,1-.51-.1l-.01-.01a1.171,1.171,0,0,1-.4-.3,1.338,1.338,0,0,1-.27-.5,2.039,2.039,0,0,1-.09-.63V84.67a2.126,2.126,0,0,1,.08-.6,1.066,1.066,0,0,1,.25-.47l.01-.01a1.1,1.1,0,0,1,.38-.27,1.348,1.348,0,0,1,.5-.09,1.242,1.242,0,0,1,.33.04,1.342,1.342,0,0,1,.3.12,1.329,1.329,0,0,1,.26.21,1.312,1.312,0,0,1,.31.64l.05.12Zm10.61.3v6.37a1.614,1.614,0,0,1-.37,1.14,1.207,1.207,0,0,1-.42.3h-.01a1.447,1.447,0,0,1-.51.1,1.269,1.269,0,0,1-.52-.1,1.149,1.149,0,0,1-.42-.31,1.338,1.338,0,0,1-.27-.5,2.091,2.091,0,0,1-.08-.63v-6.3a2.353,2.353,0,0,1,.08-.63,1.294,1.294,0,0,1,.27-.49,1.246,1.246,0,0,1,.42-.3,1.4,1.4,0,0,1,1.04,0,1.218,1.218,0,0,1,.42.29,1.18,1.18,0,0,1,.28.47,1.87,1.87,0,0,1,.09.59Zm-1.29-2.07a1.572,1.572,0,0,1-.49-.08,1.3,1.3,0,0,1-.42-.25h0a.993.993,0,0,1-.29-.41,1.514,1.514,0,0,1-.1-.53,1.176,1.176,0,0,1,.1-.5,1.313,1.313,0,0,1,.3-.41,1.173,1.173,0,0,1,.42-.26,1.333,1.333,0,0,1,.49-.09,1.5,1.5,0,0,1,.47.08,1.137,1.137,0,0,1,.41.24,1,1,0,0,1,.31.42,1.527,1.527,0,0,1,.1.54,1.317,1.317,0,0,1-.1.53,1.1,1.1,0,0,1-.29.42,1.258,1.258,0,0,1-.41.25,4.231,4.231,0,0,1-.5.05Zm11.88,7.05a1.689,1.689,0,0,1-.07.48,2.024,2.024,0,0,1-.2.49v.01a2.561,2.561,0,0,1-.33.48l-.01.01a3.934,3.934,0,0,1-.46.45,3.419,3.419,0,0,1-.61.41,4.45,4.45,0,0,1-.73.31,4.585,4.585,0,0,1-.85.2,7.037,7.037,0,0,1-.94.07,4.411,4.411,0,0,1-3.33-1.25,4.093,4.093,0,0,1-.91-1.46,5.475,5.475,0,0,1-.3-1.87,6.289,6.289,0,0,1,.13-1.32,4.908,4.908,0,0,1,.41-1.17,3.933,3.933,0,0,1,.68-.97,4.072,4.072,0,0,1,.92-.72,4.373,4.373,0,0,1,1.14-.45,5.644,5.644,0,0,1,1.33-.15,4.719,4.719,0,0,1,.85.07,4.157,4.157,0,0,1,.79.2,7.174,7.174,0,0,1,.69.3,3.866,3.866,0,0,1,.58.38,3.192,3.192,0,0,1,.46.43,2.937,2.937,0,0,1,.34.47l.01.01a2.646,2.646,0,0,1,.21.46,1.536,1.536,0,0,1,.08.46,1.13,1.13,0,0,1-.09.45,1.069,1.069,0,0,1-.27.37,1.362,1.362,0,0,1-.39.25,1.389,1.389,0,0,1-.46.08,1.055,1.055,0,0,1-.31-.04.867.867,0,0,1-.27-.14,1.394,1.394,0,0,1-.22-.21c-.07-.08-.15-.18-.23-.29v-.01a3.765,3.765,0,0,0-.39-.51,2.461,2.461,0,0,0-.39-.35,1.355,1.355,0,0,0-.44-.2,2.451,2.451,0,0,0-.56-.07,1.832,1.832,0,0,0-.79.17,1.861,1.861,0,0,0-.62.51,2.39,2.39,0,0,0-.41.83,4.258,4.258,0,0,0-.14,1.13,3.478,3.478,0,0,0,.04.57,3,3,0,0,0,.11.52,4.7,4.7,0,0,0,.17.45l.01.01a2.207,2.207,0,0,0,.23.36,1.592,1.592,0,0,0,.29.29,1.939,1.939,0,0,0,.34.21,1.626,1.626,0,0,0,.39.13,1.964,1.964,0,0,0,.43.04,2,2,0,0,0,.56-.07,1.733,1.733,0,0,0,.46-.2,2.182,2.182,0,0,0,.41-.35,3.657,3.657,0,0,0,.37-.52v-.01a2.215,2.215,0,0,1,.22-.34l.01-.01a1.632,1.632,0,0,1,.25-.27h.01a.938.938,0,0,1,.32-.19h.01a1.1,1.1,0,0,1,.37-.06.988.988,0,0,1,.45.1,1.249,1.249,0,0,1,.37.28,1.333,1.333,0,0,1,.23.37l.01.01a2.329,2.329,0,0,1,.04.38Z" transform="translate(-1.519 -2.152)" fill="#1b9c28"/>
</svg>
