<svg xmlns="http://www.w3.org/2000/svg" width="120" height="120" viewBox="0 0 120 120">
  <g id="vegan-icon" transform="translate(21 -9)">
    <path id="Path_8" data-name="Path 8" d="M91.475,25.642C72.412,32.243,47.129,31.55,38.9,51.832c-3.379,8.329-3.4,14.872-1.26,19.578H13.486a47.9,47.9,0,0,0,93.037,0H75.693c10.068-8.7,17.627-23.836,15.781-45.768ZM45.439,79.017,43.4,94.543H37.285L34.941,79.017H39.2q.718,6.43,1.055,10.868.322-4.5.664-7.968l.264-2.9ZM54.795,88.4H49.766v2.763a2.935,2.935,0,0,0,.127,1.113.493.493,0,0,0,.488.244.585.585,0,0,0,.6-.332,3.738,3.738,0,0,0,.146-1.289v-1.68h3.672v.937a8.535,8.535,0,0,1-.146,1.816,3.81,3.81,0,0,1-.693,1.357,3.444,3.444,0,0,1-1.387,1.084,5.26,5.26,0,0,1-2.1.361,6.156,6.156,0,0,1-2.168-.352,3.424,3.424,0,0,1-1.465-.976,3.493,3.493,0,0,1-.723-1.367,8,8,0,0,1-.215-2.158V86.214a6.31,6.31,0,0,1,.449-2.636A3.088,3.088,0,0,1,47.822,82.1a5.228,5.228,0,0,1,2.363-.518,5.281,5.281,0,0,1,2.686.615,3.457,3.457,0,0,1,1.494,1.64,7.651,7.651,0,0,1,.43,2.871V88.4Zm-3.867-2.06v-.928a4.769,4.769,0,0,0-.107-1.279.412.412,0,0,0-.439-.283c-.273,0-.449.078-.508.244a4.885,4.885,0,0,0-.1,1.318v.928Zm13.945-4.511v9.8a22.622,22.622,0,0,1-.088,2.568,2.64,2.64,0,0,1-.645,1.23,3.468,3.468,0,0,1-1.553.986,7.922,7.922,0,0,1-2.5.342,6.081,6.081,0,0,1-2.979-.625,2.645,2.645,0,0,1-1.162-2.471H59.7c0,.566.205.85.625.85a.633.633,0,0,0,.6-.254,2.592,2.592,0,0,0,.146-1.084v-1a3.677,3.677,0,0,1-1.055.684,2.942,2.942,0,0,1-1.162.234,3.193,3.193,0,0,1-1.729-.42,2.152,2.152,0,0,1-.928-1.1,5.979,5.979,0,0,1-.254-1.953V85a4.083,4.083,0,0,1,.654-2.607,2.453,2.453,0,0,1,2-.791,2.9,2.9,0,0,1,1.338.3,3.206,3.206,0,0,1,1.074.9l.273-.967h3.594ZM61.006,85.2a3.534,3.534,0,0,0-.107-1.113.448.448,0,0,0-.459-.234.49.49,0,0,0-.488.273,2.655,2.655,0,0,0-.146,1.084v4.277a3.588,3.588,0,0,0,.107,1.1.446.446,0,0,0,.459.254.492.492,0,0,0,.518-.3,4.942,4.942,0,0,0,.117-1.387V85.2ZM69.7,86.751H66.064v-.859a6.112,6.112,0,0,1,.342-2.285,3.143,3.143,0,0,1,1.367-1.416,5.131,5.131,0,0,1,2.666-.615,5.213,5.213,0,0,1,2.959.693,2.7,2.7,0,0,1,1.2,1.709,26.426,26.426,0,0,1,.205,4.17v6.386h-3.77V93.4a2.489,2.489,0,0,1-.918,1.025,2.546,2.546,0,0,1-1.338.342,3.254,3.254,0,0,1-1.865-.566c-.566-.381-.85-1.211-.85-2.5V90.657a3.024,3.024,0,0,1,.449-1.943A6.392,6.392,0,0,1,68.75,87.5,6.55,6.55,0,0,0,70.8,86.5a2.715,2.715,0,0,0,.137-1.055,3.616,3.616,0,0,0-.146-1.3.52.52,0,0,0-.5-.3c-.264,0-.43.088-.488.254a4.886,4.886,0,0,0-.1,1.318v1.338Zm1.23,1.748a2.846,2.846,0,0,0-1.084,1.142,4.256,4.256,0,0,0-.146,1.318,3.853,3.853,0,0,0,.127,1.279.508.508,0,0,0,.518.283.491.491,0,0,0,.479-.225,3.52,3.52,0,0,0,.107-1.182V88.5Zm9.131-6.669L80,83.011a3.01,3.01,0,0,1,1.035-1.064,2.758,2.758,0,0,1,1.406-.352,2.668,2.668,0,0,1,1.631.469,2.056,2.056,0,0,1,.811,1.182,10.448,10.448,0,0,1,.186,2.383v8.915H81.2V85.735a8.127,8.127,0,0,0-.088-1.6c-.059-.2-.215-.283-.479-.283a.487.487,0,0,0-.527.332A8.423,8.423,0,0,0,80,85.95v8.6H76.133V81.829ZM60,0A60.013,60.013,0,1,1,17.578,17.577,59.781,59.781,0,0,1,60,0ZM97.686,22.313A53.275,53.275,0,1,0,113.3,60,53.11,53.11,0,0,0,97.686,22.313ZM45.479,70.229C53.389,53.189,73.711,47.34,83.8,35.69,72.871,57,63.945,58.032,45.479,70.229Z" transform="translate(-21 9)" fill="#1b9c28" fill-rule="evenodd"/>
  </g>
</svg>
