<svg xmlns="http://www.w3.org/2000/svg" width="412" height="292" viewBox="0 0 412 292">
  <g id="Group_1" data-name="Group 1" transform="translate(-835 -551)">
    <circle id="Ellipse_1" data-name="Ellipse 1" cx="6" cy="6" r="6" transform="translate(835 551)" fill="#fff"/>
    <circle id="Ellipse_2" data-name="Ellipse 2" cx="6" cy="6" r="6" transform="translate(885 551)" fill="#fff"/>
    <circle id="Ellipse_3" data-name="Ellipse 3" cx="6" cy="6" r="6" transform="translate(935 551)" fill="#fff"/>
    <circle id="Ellipse_4" data-name="Ellipse 4" cx="6" cy="6" r="6" transform="translate(985 551)" fill="#fff"/>
    <circle id="Ellipse_5" data-name="Ellipse 5" cx="6" cy="6" r="6" transform="translate(1035 551)" fill="#fff"/>
    <circle id="Ellipse_6" data-name="Ellipse 6" cx="6" cy="6" r="6" transform="translate(1085 551)" fill="#fff"/>
    <circle id="Ellipse_7" data-name="Ellipse 7" cx="6" cy="6" r="6" transform="translate(1135 551)" fill="#fff"/>
    <circle id="Ellipse_8" data-name="Ellipse 8" cx="6" cy="6" r="6" transform="translate(1185 551)" fill="#fff"/>
    <circle id="Ellipse_9" data-name="Ellipse 9" cx="6" cy="6" r="6" transform="translate(1235 551)" fill="#fff"/>
    <circle id="Ellipse_10" data-name="Ellipse 10" cx="6" cy="6" r="6" transform="translate(835 591)" fill="#fff"/>
    <circle id="Ellipse_11" data-name="Ellipse 11" cx="6" cy="6" r="6" transform="translate(885 591)" fill="#fff"/>
    <circle id="Ellipse_12" data-name="Ellipse 12" cx="6" cy="6" r="6" transform="translate(935 591)" fill="#fff"/>
    <circle id="Ellipse_13" data-name="Ellipse 13" cx="6" cy="6" r="6" transform="translate(985 591)" fill="#fff"/>
    <circle id="Ellipse_14" data-name="Ellipse 14" cx="6" cy="6" r="6" transform="translate(1035 591)" fill="#fff"/>
    <circle id="Ellipse_15" data-name="Ellipse 15" cx="6" cy="6" r="6" transform="translate(1085 591)" fill="#fff"/>
    <circle id="Ellipse_16" data-name="Ellipse 16" cx="6" cy="6" r="6" transform="translate(1135 591)" fill="#fff"/>
    <circle id="Ellipse_17" data-name="Ellipse 17" cx="6" cy="6" r="6" transform="translate(1185 591)" fill="#fff"/>
    <circle id="Ellipse_18" data-name="Ellipse 18" cx="6" cy="6" r="6" transform="translate(1235 591)" fill="#fff"/>
    <circle id="Ellipse_19" data-name="Ellipse 19" cx="6" cy="6" r="6" transform="translate(835 631)" fill="#fff"/>
    <circle id="Ellipse_20" data-name="Ellipse 20" cx="6" cy="6" r="6" transform="translate(885 631)" fill="#fff"/>
    <circle id="Ellipse_21" data-name="Ellipse 21" cx="6" cy="6" r="6" transform="translate(935 631)" fill="#fff"/>
    <circle id="Ellipse_22" data-name="Ellipse 22" cx="6" cy="6" r="6" transform="translate(985 631)" fill="#fff"/>
    <circle id="Ellipse_23" data-name="Ellipse 23" cx="6" cy="6" r="6" transform="translate(1035 631)" fill="#fff"/>
    <circle id="Ellipse_24" data-name="Ellipse 24" cx="6" cy="6" r="6" transform="translate(1085 631)" fill="#fff"/>
    <circle id="Ellipse_25" data-name="Ellipse 25" cx="6" cy="6" r="6" transform="translate(1135 631)" fill="#fff"/>
    <circle id="Ellipse_26" data-name="Ellipse 26" cx="6" cy="6" r="6" transform="translate(1185 631)" fill="#fff"/>
    <circle id="Ellipse_27" data-name="Ellipse 27" cx="6" cy="6" r="6" transform="translate(1235 631)" fill="#fff"/>
    <circle id="Ellipse_28" data-name="Ellipse 28" cx="6" cy="6" r="6" transform="translate(835 671)" fill="#fff"/>
    <circle id="Ellipse_29" data-name="Ellipse 29" cx="6" cy="6" r="6" transform="translate(885 671)" fill="#fff"/>
    <circle id="Ellipse_30" data-name="Ellipse 30" cx="6" cy="6" r="6" transform="translate(935 671)" fill="#fff"/>
    <circle id="Ellipse_31" data-name="Ellipse 31" cx="6" cy="6" r="6" transform="translate(985 671)" fill="#fff"/>
    <circle id="Ellipse_32" data-name="Ellipse 32" cx="6" cy="6" r="6" transform="translate(1035 671)" fill="#fff"/>
    <circle id="Ellipse_33" data-name="Ellipse 33" cx="6" cy="6" r="6" transform="translate(1085 671)" fill="#fff"/>
    <circle id="Ellipse_34" data-name="Ellipse 34" cx="6" cy="6" r="6" transform="translate(1135 671)" fill="#fff"/>
    <circle id="Ellipse_35" data-name="Ellipse 35" cx="6" cy="6" r="6" transform="translate(1185 671)" fill="#fff"/>
    <circle id="Ellipse_36" data-name="Ellipse 36" cx="6" cy="6" r="6" transform="translate(1235 671)" fill="#fff"/>
    <circle id="Ellipse_37" data-name="Ellipse 37" cx="6" cy="6" r="6" transform="translate(835 711)" fill="#fff"/>
    <circle id="Ellipse_38" data-name="Ellipse 38" cx="6" cy="6" r="6" transform="translate(885 711)" fill="#fff"/>
    <circle id="Ellipse_39" data-name="Ellipse 39" cx="6" cy="6" r="6" transform="translate(935 711)" fill="#fff"/>
    <circle id="Ellipse_40" data-name="Ellipse 40" cx="6" cy="6" r="6" transform="translate(985 711)" fill="#fff"/>
    <circle id="Ellipse_41" data-name="Ellipse 41" cx="6" cy="6" r="6" transform="translate(1035 711)" fill="#fff"/>
    <circle id="Ellipse_42" data-name="Ellipse 42" cx="6" cy="6" r="6" transform="translate(1085 711)" fill="#fff"/>
    <circle id="Ellipse_43" data-name="Ellipse 43" cx="6" cy="6" r="6" transform="translate(1135 711)" fill="#fff"/>
    <circle id="Ellipse_44" data-name="Ellipse 44" cx="6" cy="6" r="6" transform="translate(1185 711)" fill="#fff"/>
    <circle id="Ellipse_45" data-name="Ellipse 45" cx="6" cy="6" r="6" transform="translate(1235 711)" fill="#fff"/>
    <circle id="Ellipse_46" data-name="Ellipse 46" cx="6" cy="6" r="6" transform="translate(835 751)" fill="#fff"/>
    <circle id="Ellipse_47" data-name="Ellipse 47" cx="6" cy="6" r="6" transform="translate(885 751)" fill="#fff"/>
    <circle id="Ellipse_48" data-name="Ellipse 48" cx="6" cy="6" r="6" transform="translate(935 751)" fill="#fff"/>
    <circle id="Ellipse_49" data-name="Ellipse 49" cx="6" cy="6" r="6" transform="translate(985 751)" fill="#fff"/>
    <circle id="Ellipse_50" data-name="Ellipse 50" cx="6" cy="6" r="6" transform="translate(1035 751)" fill="#fff"/>
    <circle id="Ellipse_51" data-name="Ellipse 51" cx="6" cy="6" r="6" transform="translate(1085 751)" fill="#fff"/>
    <circle id="Ellipse_52" data-name="Ellipse 52" cx="6" cy="6" r="6" transform="translate(1135 751)" fill="#fff"/>
    <circle id="Ellipse_53" data-name="Ellipse 53" cx="6" cy="6" r="6" transform="translate(1185 751)" fill="#fff"/>
    <circle id="Ellipse_54" data-name="Ellipse 54" cx="6" cy="6" r="6" transform="translate(1235 751)" fill="#fff"/>
    <circle id="Ellipse_55" data-name="Ellipse 55" cx="6" cy="6" r="6" transform="translate(835 791)" fill="#fff"/>
    <circle id="Ellipse_56" data-name="Ellipse 56" cx="6" cy="6" r="6" transform="translate(885 791)" fill="#fff"/>
    <circle id="Ellipse_57" data-name="Ellipse 57" cx="6" cy="6" r="6" transform="translate(935 791)" fill="#fff"/>
    <circle id="Ellipse_58" data-name="Ellipse 58" cx="6" cy="6" r="6" transform="translate(985 791)" fill="#fff"/>
    <circle id="Ellipse_59" data-name="Ellipse 59" cx="6" cy="6" r="6" transform="translate(1035 791)" fill="#fff"/>
    <circle id="Ellipse_60" data-name="Ellipse 60" cx="6" cy="6" r="6" transform="translate(1085 791)" fill="#fff"/>
    <circle id="Ellipse_61" data-name="Ellipse 61" cx="6" cy="6" r="6" transform="translate(1135 791)" fill="#fff"/>
    <circle id="Ellipse_62" data-name="Ellipse 62" cx="6" cy="6" r="6" transform="translate(1185 791)" fill="#fff"/>
    <circle id="Ellipse_63" data-name="Ellipse 63" cx="6" cy="6" r="6" transform="translate(1235 791)" fill="#fff"/>
    <circle id="Ellipse_64" data-name="Ellipse 64" cx="6" cy="6" r="6" transform="translate(835 831)" fill="#fff"/>
    <circle id="Ellipse_65" data-name="Ellipse 65" cx="6" cy="6" r="6" transform="translate(885 831)" fill="#fff"/>
    <circle id="Ellipse_66" data-name="Ellipse 66" cx="6" cy="6" r="6" transform="translate(935 831)" fill="#fff"/>
    <circle id="Ellipse_67" data-name="Ellipse 67" cx="6" cy="6" r="6" transform="translate(985 831)" fill="#fff"/>
    <circle id="Ellipse_68" data-name="Ellipse 68" cx="6" cy="6" r="6" transform="translate(1035 831)" fill="#fff"/>
    <circle id="Ellipse_69" data-name="Ellipse 69" cx="6" cy="6" r="6" transform="translate(1085 831)" fill="#fff"/>
    <circle id="Ellipse_70" data-name="Ellipse 70" cx="6" cy="6" r="6" transform="translate(1135 831)" fill="#fff"/>
    <circle id="Ellipse_71" data-name="Ellipse 71" cx="6" cy="6" r="6" transform="translate(1185 831)" fill="#fff"/>
    <circle id="Ellipse_72" data-name="Ellipse 72" cx="6" cy="6" r="6" transform="translate(1235 831)" fill="#fff"/>
  </g>
</svg>
